<svg xmlns:dc="http://purl.org/dc/elements/1.1/" xmlns:cc="http://creativecommons.org/ns#" xmlns:rdf="http://www.w3.org/1999/02/22-rdf-syntax-ns#" xmlns:svg="http://www.w3.org/2000/svg" xmlns="http://www.w3.org/2000/svg" xmlns:sodipodi="http://sodipodi.sourceforge.net/DTD/sodipodi-0.dtd" xmlns:inkscape="http://www.inkscape.org/namespaces/inkscape" width="425mm" height="248mm" viewBox="0 0 425 248" id="svg11298" inkscape:version="1.0.2 (e86c8708, 2021-01-15)" sodipodi:docname="cloud.svg"><defs id="defs11292"><filter style="color-interpolation-filters:sRGB" inkscape:label="Drop Shadow" id="filter2473"><feFlood flood-opacity=".301961" flood-color="rgb(0,0,0)" result="flood" id="feFlood2463" /><feComposite in="flood" in2="SourceGraphic" operator="in" result="composite1" id="feComposite2465" /><feGaussianBlur in="composite1" stdDeviation="7" result="blur" id="feGaussianBlur2467" /><feOffset dx="1" dy="1" result="offset" id="feOffset2469" /><feComposite in="SourceGraphic" in2="offset" operator="over" result="composite2" id="feComposite2471" /></filter><filter style="color-interpolation-filters:sRGB" inkscape:label="Drop Shadow" id="filter11175"><feFlood flood-opacity=".301961" flood-color="rgb(0,0,0)" result="flood" id="feFlood11165" /><feComposite in="flood" in2="SourceGraphic" operator="in" result="composite1" id="feComposite11167" /><feGaussianBlur in="composite1" stdDeviation="7" result="blur" id="feGaussianBlur11169" /><feOffset dx="1" dy="1" result="offset" id="feOffset11171" /><feComposite in="SourceGraphic" in2="offset" operator="over" result="composite2" id="feComposite11173" /></filter><filter style="color-interpolation-filters:sRGB" inkscape:label="Drop Shadow" id="filter11187"><feFlood flood-opacity=".301961" flood-color="rgb(0,0,0)" result="flood" id="feFlood11177" /><feComposite in="flood" in2="SourceGraphic" operator="in" result="composite1" id="feComposite11179" /><feGaussianBlur in="composite1" stdDeviation="7" result="blur" id="feGaussianBlur11181" /><feOffset dx="1" dy="1" result="offset" id="feOffset11183" /><feComposite in="SourceGraphic" in2="offset" operator="over" result="composite2" id="feComposite11185" /></filter><filter style="color-interpolation-filters:sRGB" inkscape:label="Drop Shadow" id="filter11199"><feFlood flood-opacity=".301961" flood-color="rgb(0,0,0)" result="flood" id="feFlood11189" /><feComposite in="flood" in2="SourceGraphic" operator="in" result="composite1" id="feComposite11191" /><feGaussianBlur in="composite1" stdDeviation="7" result="blur" id="feGaussianBlur11193" /><feOffset dx="1" dy="1" result="offset" id="feOffset11195" /><feComposite in="SourceGraphic" in2="offset" operator="over" result="composite2" id="feComposite11197" /></filter></defs><sodipodi:namedview id="base" pagecolor="#ffffff" bordercolor="#666666" borderopacity="1" inkscape:pageopacity="0" inkscape:pageshadow="2" inkscape:zoom=".35" inkscape:cx="971.42857" inkscape:cy="560" inkscape:document-units="mm" inkscape:current-layer="layer1" inkscape:document-rotation="0" showgrid="false" inkscape:window-width="1920" inkscape:window-height="972" inkscape:window-x="0" inkscape:window-y="25" inkscape:window-maximized="1" /><g inkscape:label="Layer 1" inkscape:groupmode="layer" id="layer1"><g id="g6191" transform="translate(-2057.9079,240.89919)"><g id="g5190" transform="matrix(0.26458333,0,0,0.26458333,2278.3206,-159.40915)" style="filter:url(#filter2473)" inkscape:export-xdpi="96" inkscape:export-ydpi="96"><path style="fill:#9fdef7" d="m155.968 187.07h38.254c14.29-26.216 38.712-46.094 68.024-54.357-5.897-14.318-19.979-24.397-36.419-24.397-4.11.0-8.069.633-11.79 1.798.02-.598.046-1.195.046-1.798.0-29.244-23.714-52.956-52.96-52.956-25.223.0-46.309 17.632-51.642 41.239-3.168-1.056-6.548-1.634-10.069-1.634-10.834.0-20.398 5.424-26.133 13.703-3.2-.825-6.56-1.272-10.019-1.272-22 0-39.834 17.835-39.834 39.836.0 21.997 17.835 39.836 39.834 39.836h63.687" id="path5148" /><path style="fill:#beeafc" d="m373.536 162.958c-20.468-21.893-49.607-35.578-81.941-35.578-53.408.0-98.066 37.345-109.362 87.34-6.704-2.236-13.865-3.466-21.318-3.466-22.947.0-43.196 11.49-55.341 29.022-6.779-1.751-13.888-2.692-21.216-2.692-46.59.0-84.358 37.768-84.358 84.358.0 46.588 37.768 84.361 84.358 84.361h93.011c.196-28.675 23.489-51.858 52.206-51.858 5.446.0 10.697.835 15.633 2.382-.023-.79-.059-1.582-.059-2.382.0-38.787 31.442-70.23 70.228-70.23 33.443.0 61.41 23.387 68.483 54.691 4.197-1.401 8.678-2.17 13.346-2.17 14.368.0 27.051 7.194 34.655 18.175 4.245-1.098 8.696-1.688 13.284-1.688 19.231.0 36.057 10.279 45.295 25.637 13.396-14.793 21.557-34.414 21.557-55.94.0-46.056-37.332-83.384-83.384-83.384-8.696.0-17.08 1.333-24.963 3.803.041-1.263.096-2.529.096-3.803.0-18.832-4.641-36.579-12.845-52.163" id="path5150" /><path style="fill:#aee4ff" d="M89.442 237.74C87.76 237.638 86.066 237.583 84.358 237.583 37.768 237.582.0 275.351.0 321.941c0 46.588 37.768 84.361 84.358 84.361h93.011c.061-8.998 2.4-17.454 6.464-24.823C137.844 346.086 103.961 295.755 89.442 237.74z" id="path5152" /><path style="fill:#83d4ed" d="m81.614 174.026c0-27.362 4.208-53.738 11.999-78.528-8.402 1.551-15.646 6.407-20.333 13.171-3.2-.825-6.56-1.272-10.019-1.272-22 0-39.834 17.835-39.834 39.836.0 21.997 17.835 39.836 39.834 39.836h18.678c-.212-4.322-.325-8.669-.325-13.043z" id="path5154" /><path style="fill:#e4f2f9" d="m445.146 350.991c-4.588.0-9.041.588-13.284 1.688-7.604-10.982-20.287-18.175-34.655-18.175-4.668.0-9.149.769-13.346 2.17-7.074-31.305-35.04-54.691-68.483-54.691-38.786.0-70.228 31.443-70.228 70.23.0.8.035 1.592.059 2.382-4.936-1.547-10.187-2.382-15.633-2.382-28.835.0-52.212 23.373-52.212 52.216.0 28.835 23.378 52.21 52.212 52.21h156.329 29.013 30.23c29.175.0 52.827-23.651 52.827-52.824-.002-29.175-23.654-52.824-52.829-52.824z" id="path5156" /><path style="fill:#d7edf9" d="m285.258 337.525c0-18.847 4-36.758 11.185-52.941-29.585 8.267-51.295 35.403-51.295 67.627.0.8.035 1.592.059 2.382-4.936-1.547-10.187-2.382-15.633-2.382-28.835.0-52.212 23.373-52.212 52.216.0 28.835 23.378 52.21 52.212 52.21H362.251C316.86 436.184 285.258 390.545 285.258 337.525z" id="path5158" /><g id="g5160" /><g id="g5162" /><g id="g5164" /><g id="g5166" /><g id="g5168" /><g id="g5170" /><g id="g5172" /><g id="g5174" /><g id="g5176" /><g id="g5178" /><g id="g5180" /><g id="g5182" /><g id="g5184" /><g id="g5186" /><g id="g5188" /></g><g id="g5234" transform="matrix(-0.20806761,0,0,0.20806761,2230.6908,-96.459043)" style="filter:url(#filter2473)" inkscape:export-xdpi="96" inkscape:export-ydpi="96"><path style="fill:#9fdef7" d="m155.968 187.07h38.254c14.29-26.216 38.712-46.094 68.024-54.357-5.897-14.318-19.979-24.397-36.419-24.397-4.11.0-8.069.633-11.79 1.798.02-.598.046-1.195.046-1.798.0-29.244-23.714-52.956-52.96-52.956-25.223.0-46.309 17.632-51.642 41.239-3.168-1.056-6.548-1.634-10.069-1.634-10.834.0-20.398 5.424-26.133 13.703-3.2-.825-6.56-1.272-10.019-1.272-22 0-39.834 17.835-39.834 39.836.0 21.997 17.835 39.836 39.834 39.836h63.687" id="path5192" /><path style="fill:#beeafc" d="m373.536 162.958c-20.468-21.893-49.607-35.578-81.941-35.578-53.408.0-98.066 37.345-109.362 87.34-6.704-2.236-13.865-3.466-21.318-3.466-22.947.0-43.196 11.49-55.341 29.022-6.779-1.751-13.888-2.692-21.216-2.692-46.59.0-84.358 37.768-84.358 84.358.0 46.588 37.768 84.361 84.358 84.361h93.011c.196-28.675 23.489-51.858 52.206-51.858 5.446.0 10.697.835 15.633 2.382-.023-.79-.059-1.582-.059-2.382.0-38.787 31.442-70.23 70.228-70.23 33.443.0 61.41 23.387 68.483 54.691 4.197-1.401 8.678-2.17 13.346-2.17 14.368.0 27.051 7.194 34.655 18.175 4.245-1.098 8.696-1.688 13.284-1.688 19.231.0 36.057 10.279 45.295 25.637 13.396-14.793 21.557-34.414 21.557-55.94.0-46.056-37.332-83.384-83.384-83.384-8.696.0-17.08 1.333-24.963 3.803.041-1.263.096-2.529.096-3.803.0-18.832-4.641-36.579-12.845-52.163" id="path5194" /><path style="fill:#aee4ff" d="M89.442 237.74C87.76 237.638 86.066 237.583 84.358 237.583 37.768 237.582.0 275.351.0 321.941c0 46.588 37.768 84.361 84.358 84.361h93.011c.061-8.998 2.4-17.454 6.464-24.823C137.844 346.086 103.961 295.755 89.442 237.74z" id="path5196" /><path style="fill:#83d4ed" d="m81.614 174.026c0-27.362 4.208-53.738 11.999-78.528-8.402 1.551-15.646 6.407-20.333 13.171-3.2-.825-6.56-1.272-10.019-1.272-22 0-39.834 17.835-39.834 39.836.0 21.997 17.835 39.836 39.834 39.836h18.678c-.212-4.322-.325-8.669-.325-13.043z" id="path5198" /><path style="fill:#e4f2f9" d="m445.146 350.991c-4.588.0-9.041.588-13.284 1.688-7.604-10.982-20.287-18.175-34.655-18.175-4.668.0-9.149.769-13.346 2.17-7.074-31.305-35.04-54.691-68.483-54.691-38.786.0-70.228 31.443-70.228 70.23.0.8.035 1.592.059 2.382-4.936-1.547-10.187-2.382-15.633-2.382-28.835.0-52.212 23.373-52.212 52.216.0 28.835 23.378 52.21 52.212 52.21h156.329 29.013 30.23c29.175.0 52.827-23.651 52.827-52.824-.002-29.175-23.654-52.824-52.829-52.824z" id="path5200" /><path style="fill:#d7edf9" d="m285.258 337.525c0-18.847 4-36.758 11.185-52.941-29.585 8.267-51.295 35.403-51.295 67.627.0.8.035 1.592.059 2.382-4.936-1.547-10.187-2.382-15.633-2.382-28.835.0-52.212 23.373-52.212 52.216.0 28.835 23.378 52.21 52.212 52.21H362.251C316.86 436.184 285.258 390.545 285.258 337.525z" id="path5202" /><g id="g5204" /><g id="g5206" /><g id="g5208" /><g id="g5210" /><g id="g5212" /><g id="g5214" /><g id="g5216" /><g id="g5218" /><g id="g5220" /><g id="g5222" /><g id="g5224" /><g id="g5226" /><g id="g5228" /><g id="g5230" /><g id="g5232" /></g><g id="g5792" transform="matrix(0.20806761,0,0,0.20806761,2068.9763,-231.77451)" style="filter:url(#filter2473)" inkscape:export-xdpi="96" inkscape:export-ydpi="96"><path style="fill:#9fdef7" d="m155.968 187.07h38.254c14.29-26.216 38.712-46.094 68.024-54.357-5.897-14.318-19.979-24.397-36.419-24.397-4.11.0-8.069.633-11.79 1.798.02-.598.046-1.195.046-1.798.0-29.244-23.714-52.956-52.96-52.956-25.223.0-46.309 17.632-51.642 41.239-3.168-1.056-6.548-1.634-10.069-1.634-10.834.0-20.398 5.424-26.133 13.703-3.2-.825-6.56-1.272-10.019-1.272-22 0-39.834 17.835-39.834 39.836.0 21.997 17.835 39.836 39.834 39.836h63.687" id="path5750" /><path style="fill:#beeafc" d="m373.536 162.958c-20.468-21.893-49.607-35.578-81.941-35.578-53.408.0-98.066 37.345-109.362 87.34-6.704-2.236-13.865-3.466-21.318-3.466-22.947.0-43.196 11.49-55.341 29.022-6.779-1.751-13.888-2.692-21.216-2.692-46.59.0-84.358 37.768-84.358 84.358.0 46.588 37.768 84.361 84.358 84.361h93.011c.196-28.675 23.489-51.858 52.206-51.858 5.446.0 10.697.835 15.633 2.382-.023-.79-.059-1.582-.059-2.382.0-38.787 31.442-70.23 70.228-70.23 33.443.0 61.41 23.387 68.483 54.691 4.197-1.401 8.678-2.17 13.346-2.17 14.368.0 27.051 7.194 34.655 18.175 4.245-1.098 8.696-1.688 13.284-1.688 19.231.0 36.057 10.279 45.295 25.637 13.396-14.793 21.557-34.414 21.557-55.94.0-46.056-37.332-83.384-83.384-83.384-8.696.0-17.08 1.333-24.963 3.803.041-1.263.096-2.529.096-3.803.0-18.832-4.641-36.579-12.845-52.163" id="path5752" /><path style="fill:#aee4ff" d="M89.442 237.74C87.76 237.638 86.066 237.583 84.358 237.583 37.768 237.582.0 275.351.0 321.941c0 46.588 37.768 84.361 84.358 84.361h93.011c.061-8.998 2.4-17.454 6.464-24.823C137.844 346.086 103.961 295.755 89.442 237.74z" id="path5754" /><path style="fill:#83d4ed" d="m81.614 174.026c0-27.362 4.208-53.738 11.999-78.528-8.402 1.551-15.646 6.407-20.333 13.171-3.2-.825-6.56-1.272-10.019-1.272-22 0-39.834 17.835-39.834 39.836.0 21.997 17.835 39.836 39.834 39.836h18.678c-.212-4.322-.325-8.669-.325-13.043z" id="path5756" /><path style="fill:#e4f2f9" d="m445.146 350.991c-4.588.0-9.041.588-13.284 1.688-7.604-10.982-20.287-18.175-34.655-18.175-4.668.0-9.149.769-13.346 2.17-7.074-31.305-35.04-54.691-68.483-54.691-38.786.0-70.228 31.443-70.228 70.23.0.8.035 1.592.059 2.382-4.936-1.547-10.187-2.382-15.633-2.382-28.835.0-52.212 23.373-52.212 52.216.0 28.835 23.378 52.21 52.212 52.21h156.329 29.013 30.23c29.175.0 52.827-23.651 52.827-52.824-.002-29.175-23.654-52.824-52.829-52.824z" id="path5758" /><path style="fill:#d7edf9" d="m285.258 337.525c0-18.847 4-36.758 11.185-52.941-29.585 8.267-51.295 35.403-51.295 67.627.0.8.035 1.592.059 2.382-4.936-1.547-10.187-2.382-15.633-2.382-28.835.0-52.212 23.373-52.212 52.216.0 28.835 23.378 52.21 52.212 52.21H362.251C316.86 436.184 285.258 390.545 285.258 337.525z" id="path5760" /><g id="g5762" /><g id="g5764" /><g id="g5766" /><g id="g5768" /><g id="g5770" /><g id="g5772" /><g id="g5774" /><g id="g5776" /><g id="g5778" /><g id="g5780" /><g id="g5782" /><g id="g5784" /><g id="g5786" /><g id="g5788" /><g id="g5790" /></g><g id="g5836" transform="matrix(0.20806761,0,0,0.20806761,2365.3096,-243.86975)" style="filter:url(#filter2473)" inkscape:export-xdpi="96" inkscape:export-ydpi="96"><path style="fill:#9fdef7" d="m155.968 187.07h38.254c14.29-26.216 38.712-46.094 68.024-54.357-5.897-14.318-19.979-24.397-36.419-24.397-4.11.0-8.069.633-11.79 1.798.02-.598.046-1.195.046-1.798.0-29.244-23.714-52.956-52.96-52.956-25.223.0-46.309 17.632-51.642 41.239-3.168-1.056-6.548-1.634-10.069-1.634-10.834.0-20.398 5.424-26.133 13.703-3.2-.825-6.56-1.272-10.019-1.272-22 0-39.834 17.835-39.834 39.836.0 21.997 17.835 39.836 39.834 39.836h63.687" id="path5794" /><path style="fill:#beeafc" d="m373.536 162.958c-20.468-21.893-49.607-35.578-81.941-35.578-53.408.0-98.066 37.345-109.362 87.34-6.704-2.236-13.865-3.466-21.318-3.466-22.947.0-43.196 11.49-55.341 29.022-6.779-1.751-13.888-2.692-21.216-2.692-46.59.0-84.358 37.768-84.358 84.358.0 46.588 37.768 84.361 84.358 84.361h93.011c.196-28.675 23.489-51.858 52.206-51.858 5.446.0 10.697.835 15.633 2.382-.023-.79-.059-1.582-.059-2.382.0-38.787 31.442-70.23 70.228-70.23 33.443.0 61.41 23.387 68.483 54.691 4.197-1.401 8.678-2.17 13.346-2.17 14.368.0 27.051 7.194 34.655 18.175 4.245-1.098 8.696-1.688 13.284-1.688 19.231.0 36.057 10.279 45.295 25.637 13.396-14.793 21.557-34.414 21.557-55.94.0-46.056-37.332-83.384-83.384-83.384-8.696.0-17.08 1.333-24.963 3.803.041-1.263.096-2.529.096-3.803.0-18.832-4.641-36.579-12.845-52.163" id="path5796" /><path style="fill:#aee4ff" d="M89.442 237.74C87.76 237.638 86.066 237.583 84.358 237.583 37.768 237.582.0 275.351.0 321.941c0 46.588 37.768 84.361 84.358 84.361h93.011c.061-8.998 2.4-17.454 6.464-24.823C137.844 346.086 103.961 295.755 89.442 237.74z" id="path5798" /><path style="fill:#83d4ed" d="m81.614 174.026c0-27.362 4.208-53.738 11.999-78.528-8.402 1.551-15.646 6.407-20.333 13.171-3.2-.825-6.56-1.272-10.019-1.272-22 0-39.834 17.835-39.834 39.836.0 21.997 17.835 39.836 39.834 39.836h18.678c-.212-4.322-.325-8.669-.325-13.043z" id="path5800" /><path style="fill:#e4f2f9" d="m445.146 350.991c-4.588.0-9.041.588-13.284 1.688-7.604-10.982-20.287-18.175-34.655-18.175-4.668.0-9.149.769-13.346 2.17-7.074-31.305-35.04-54.691-68.483-54.691-38.786.0-70.228 31.443-70.228 70.23.0.8.035 1.592.059 2.382-4.936-1.547-10.187-2.382-15.633-2.382-28.835.0-52.212 23.373-52.212 52.216.0 28.835 23.378 52.21 52.212 52.21h156.329 29.013 30.23c29.175.0 52.827-23.651 52.827-52.824-.002-29.175-23.654-52.824-52.829-52.824z" id="path5802" /><path style="fill:#d7edf9" d="m285.258 337.525c0-18.847 4-36.758 11.185-52.941-29.585 8.267-51.295 35.403-51.295 67.627.0.8.035 1.592.059 2.382-4.936-1.547-10.187-2.382-15.633-2.382-28.835.0-52.212 23.373-52.212 52.216.0 28.835 23.378 52.21 52.212 52.21H362.251C316.86 436.184 285.258 390.545 285.258 337.525z" id="path5804" /><g id="g5806" /><g id="g5808" /><g id="g5810" /><g id="g5812" /><g id="g5814" /><g id="g5816" /><g id="g5818" /><g id="g5820" /><g id="g5822" /><g id="g5824" /><g id="g5826" /><g id="g5828" /><g id="g5830" /><g id="g5832" /><g id="g5834" /></g></g></g></svg>