<svg xmlns:dc="http://purl.org/dc/elements/1.1/" xmlns:cc="http://creativecommons.org/ns#" xmlns:rdf="http://www.w3.org/1999/02/22-rdf-syntax-ns#" xmlns:svg="http://www.w3.org/2000/svg" xmlns="http://www.w3.org/2000/svg" xmlns:sodipodi="http://sodipodi.sourceforge.net/DTD/sodipodi-0.dtd" xmlns:inkscape="http://www.inkscape.org/namespaces/inkscape" width="435mm" height="248mm" viewBox="0 0 435 248" id="svg5076" inkscape:version="1.0.2 (e86c8708, 2021-01-15)" sodipodi:docname="cloud-dusk.svg"><defs id="defs5070"><filter style="color-interpolation-filters:sRGB" inkscape:label="Drop Shadow" id="filter2473"><feFlood flood-opacity=".301961" flood-color="rgb(0,0,0)" result="flood" id="feFlood2463" /><feComposite in="flood" in2="SourceGraphic" operator="in" result="composite1" id="feComposite2465" /><feGaussianBlur in="composite1" stdDeviation="7" result="blur" id="feGaussianBlur2467" /><feOffset dx="1" dy="1" result="offset" id="feOffset2469" /><feComposite in="SourceGraphic" in2="offset" operator="over" result="composite2" id="feComposite2471" /></filter><filter style="color-interpolation-filters:sRGB" inkscape:label="Drop Shadow" id="filter5663"><feFlood flood-opacity=".301961" flood-color="rgb(0,0,0)" result="flood" id="feFlood5653" /><feComposite in="flood" in2="SourceGraphic" operator="in" result="composite1" id="feComposite5655" /><feGaussianBlur in="composite1" stdDeviation="7" result="blur" id="feGaussianBlur5657" /><feOffset dx="1" dy="1" result="offset" id="feOffset5659" /><feComposite in="SourceGraphic" in2="offset" operator="over" result="composite2" id="feComposite5661" /></filter><filter style="color-interpolation-filters:sRGB" inkscape:label="Drop Shadow" id="filter5675"><feFlood flood-opacity=".301961" flood-color="rgb(0,0,0)" result="flood" id="feFlood5665" /><feComposite in="flood" in2="SourceGraphic" operator="in" result="composite1" id="feComposite5667" /><feGaussianBlur in="composite1" stdDeviation="7" result="blur" id="feGaussianBlur5669" /><feOffset dx="1" dy="1" result="offset" id="feOffset5671" /><feComposite in="SourceGraphic" in2="offset" operator="over" result="composite2" id="feComposite5673" /></filter><filter style="color-interpolation-filters:sRGB" inkscape:label="Drop Shadow" id="filter5687"><feFlood flood-opacity=".301961" flood-color="rgb(0,0,0)" result="flood" id="feFlood5677" /><feComposite in="flood" in2="SourceGraphic" operator="in" result="composite1" id="feComposite5679" /><feGaussianBlur in="composite1" stdDeviation="7" result="blur" id="feGaussianBlur5681" /><feOffset dx="1" dy="1" result="offset" id="feOffset5683" /><feComposite in="SourceGraphic" in2="offset" operator="over" result="composite2" id="feComposite5685" /></filter><filter style="color-interpolation-filters:sRGB" inkscape:label="Drop Shadow" id="filter2473-7"><feFlood flood-opacity=".301961" flood-color="rgb(0,0,0)" result="flood" id="feFlood2463-9" /><feComposite in="flood" in2="SourceGraphic" operator="in" result="composite1" id="feComposite2465-6" /><feGaussianBlur in="composite1" stdDeviation="7" result="blur" id="feGaussianBlur2467-6" /><feOffset dx="1" dy="1" result="offset" id="feOffset2469-6" /><feComposite in="SourceGraphic" in2="offset" operator="over" result="composite2" id="feComposite2471-4" /></filter><filter style="color-interpolation-filters:sRGB" inkscape:label="Drop Shadow" id="filter9630"><feFlood flood-opacity=".301961" flood-color="rgb(0,0,0)" result="flood" id="feFlood9620" /><feComposite in="flood" in2="SourceGraphic" operator="in" result="composite1" id="feComposite9622" /><feGaussianBlur in="composite1" stdDeviation="7" result="blur" id="feGaussianBlur9624" /><feOffset dx="1" dy="1" result="offset" id="feOffset9626" /><feComposite in="SourceGraphic" in2="offset" operator="over" result="composite2" id="feComposite9628" /></filter><filter style="color-interpolation-filters:sRGB" inkscape:label="Drop Shadow" id="filter9642"><feFlood flood-opacity=".301961" flood-color="rgb(0,0,0)" result="flood" id="feFlood9632" /><feComposite in="flood" in2="SourceGraphic" operator="in" result="composite1" id="feComposite9634" /><feGaussianBlur in="composite1" stdDeviation="7" result="blur" id="feGaussianBlur9636" /><feOffset dx="1" dy="1" result="offset" id="feOffset9638" /><feComposite in="SourceGraphic" in2="offset" operator="over" result="composite2" id="feComposite9640" /></filter><filter style="color-interpolation-filters:sRGB" inkscape:label="Drop Shadow" id="filter9654"><feFlood flood-opacity=".301961" flood-color="rgb(0,0,0)" result="flood" id="feFlood9644" /><feComposite in="flood" in2="SourceGraphic" operator="in" result="composite1" id="feComposite9646" /><feGaussianBlur in="composite1" stdDeviation="7" result="blur" id="feGaussianBlur9648" /><feOffset dx="1" dy="1" result="offset" id="feOffset9650" /><feComposite in="SourceGraphic" in2="offset" operator="over" result="composite2" id="feComposite9652" /></filter></defs><sodipodi:namedview id="base" pagecolor="#ffffff" bordercolor="#666666" borderopacity="1" inkscape:pageopacity="0" inkscape:pageshadow="2" inkscape:zoom=".35" inkscape:cx="637.14286" inkscape:cy="611.42857" inkscape:document-units="mm" inkscape:current-layer="layer1" inkscape:document-rotation="0" showgrid="false" inkscape:window-width="1252" inkscape:window-height="943" inkscape:window-x="260" inkscape:window-y="62" inkscape:window-maximized="0" /><g inkscape:label="Layer 1" inkscape:groupmode="layer" id="layer1"><g id="g8502" transform="translate(-2055.9989,-409.68463)"><g id="g3987" transform="matrix(0.26458333,0,0,0.26458333,2276.12,491.17467)" style="filter:url(#filter2473-7)" inkscape:export-xdpi="96" inkscape:export-ydpi="96"><path style="fill:#fc973e;fill-opacity:1" d="m155.968 187.07h38.254c14.29-26.216 38.712-46.094 68.024-54.357-5.897-14.318-19.979-24.397-36.419-24.397-4.11.0-8.069.633-11.79 1.798.02-.598.046-1.195.046-1.798.0-29.244-23.714-52.956-52.96-52.956-25.223.0-46.309 17.632-51.642 41.239-3.168-1.056-6.548-1.634-10.069-1.634-10.834.0-20.398 5.424-26.133 13.703-3.2-.825-6.56-1.272-10.019-1.272-22 0-39.834 17.835-39.834 39.836.0 21.997 17.835 39.836 39.834 39.836h63.687" id="path3933" /><path style="fill:#ce7201;fill-opacity:1" d="m373.536 162.958c-20.468-21.893-49.607-35.578-81.941-35.578-53.408.0-98.066 37.345-109.362 87.34-6.704-2.236-13.865-3.466-21.318-3.466-22.947.0-43.196 11.49-55.341 29.022-6.779-1.751-13.888-2.692-21.216-2.692-46.59.0-84.358 37.768-84.358 84.358.0 46.588 37.768 84.361 84.358 84.361h93.011c.196-28.675 23.489-51.858 52.206-51.858 5.446.0 10.697.835 15.633 2.382-.023-.79-.059-1.582-.059-2.382.0-38.787 31.442-70.23 70.228-70.23 33.443.0 61.41 23.387 68.483 54.691 4.197-1.401 8.678-2.17 13.346-2.17 14.368.0 27.051 7.194 34.655 18.175 4.245-1.098 8.696-1.688 13.284-1.688 19.231.0 36.057 10.279 45.295 25.637 13.396-14.793 21.557-34.414 21.557-55.94.0-46.056-37.332-83.384-83.384-83.384-8.696.0-17.08 1.333-24.963 3.803.041-1.263.096-2.529.096-3.803.0-18.832-4.641-36.579-12.845-52.163" id="path3935" /><path style="fill:#ce7201;fill-opacity:1" d="M89.442 237.74C87.76 237.638 86.066 237.583 84.358 237.583 37.768 237.582.0 275.351.0 321.941c0 46.588 37.768 84.361 84.358 84.361h93.011c.061-8.998 2.4-17.454 6.464-24.823C137.844 346.086 103.961 295.755 89.442 237.74z" id="path3937" /><path style="fill:#fb8b01;fill-opacity:1" d="m81.614 174.026c0-27.362 4.208-53.738 11.999-78.528-8.402 1.551-15.646 6.407-20.333 13.171-3.2-.825-6.56-1.272-10.019-1.272-22 0-39.834 17.835-39.834 39.836.0 21.997 17.835 39.836 39.834 39.836h18.678c-.212-4.322-.325-8.669-.325-13.043z" id="path3944" /><path style="fill:#fca73e;fill-opacity:1" d="m445.146 350.991c-4.588.0-9.041.588-13.284 1.688-7.604-10.982-20.287-18.175-34.655-18.175-4.668.0-9.149.769-13.346 2.17-7.074-31.305-35.04-54.691-68.483-54.691-38.786.0-70.228 31.443-70.228 70.23.0.8.035 1.592.059 2.382-4.936-1.547-10.187-2.382-15.633-2.382-28.835.0-52.212 23.373-52.212 52.216.0 28.835 23.378 52.21 52.212 52.21h156.329 29.013 30.23c29.175.0 52.827-23.651 52.827-52.824-.002-29.175-23.654-52.824-52.829-52.824z" id="path3950" /><path style="fill:#fca73e;fill-opacity:1" d="m285.258 337.525c0-18.847 4-36.758 11.185-52.941-29.585 8.267-51.295 35.403-51.295 67.627.0.8.035 1.592.059 2.382-4.936-1.547-10.187-2.382-15.633-2.382-28.835.0-52.212 23.373-52.212 52.216.0 28.835 23.378 52.21 52.212 52.21H362.251C316.86 436.184 285.258 390.545 285.258 337.525z" id="path3954" /><g id="g3956" /><g id="g3958" /><g id="g3960" /><g id="g3962" /><g id="g3964" /><g id="g3966" /><g id="g3968" /><g id="g3971" /><g id="g3973" /><g id="g3975" /><g id="g3977" /><g id="g3979" /><g id="g3981" /><g id="g3983" /><g id="g3985" /></g><g id="g4031" transform="matrix(-0.20806761,0,0,0.20806761,2228.4902,554.12478)" style="filter:url(#filter2473-7)" inkscape:export-xdpi="96" inkscape:export-ydpi="96"><path style="fill:#fc973e;fill-opacity:1" d="m155.968 187.07h38.254c14.29-26.216 38.712-46.094 68.024-54.357-5.897-14.318-19.979-24.397-36.419-24.397-4.11.0-8.069.633-11.79 1.798.02-.598.046-1.195.046-1.798.0-29.244-23.714-52.956-52.96-52.956-25.223.0-46.309 17.632-51.642 41.239-3.168-1.056-6.548-1.634-10.069-1.634-10.834.0-20.398 5.424-26.133 13.703-3.2-.825-6.56-1.272-10.019-1.272-22 0-39.834 17.835-39.834 39.836.0 21.997 17.835 39.836 39.834 39.836h63.687" id="path3989" /><path style="fill:#ce7201;fill-opacity:1" d="m373.536 162.958c-20.468-21.893-49.607-35.578-81.941-35.578-53.408.0-98.066 37.345-109.362 87.34-6.704-2.236-13.865-3.466-21.318-3.466-22.947.0-43.196 11.49-55.341 29.022-6.779-1.751-13.888-2.692-21.216-2.692-46.59.0-84.358 37.768-84.358 84.358.0 46.588 37.768 84.361 84.358 84.361h93.011c.196-28.675 23.489-51.858 52.206-51.858 5.446.0 10.697.835 15.633 2.382-.023-.79-.059-1.582-.059-2.382.0-38.787 31.442-70.23 70.228-70.23 33.443.0 61.41 23.387 68.483 54.691 4.197-1.401 8.678-2.17 13.346-2.17 14.368.0 27.051 7.194 34.655 18.175 4.245-1.098 8.696-1.688 13.284-1.688 19.231.0 36.057 10.279 45.295 25.637 13.396-14.793 21.557-34.414 21.557-55.94.0-46.056-37.332-83.384-83.384-83.384-8.696.0-17.08 1.333-24.963 3.803.041-1.263.096-2.529.096-3.803.0-18.832-4.641-36.579-12.845-52.163" id="path3991" /><path style="fill:#ce7201;fill-opacity:1" d="M89.442 237.74C87.76 237.638 86.066 237.583 84.358 237.583 37.768 237.582.0 275.351.0 321.941c0 46.588 37.768 84.361 84.358 84.361h93.011c.061-8.998 2.4-17.454 6.464-24.823C137.844 346.086 103.961 295.755 89.442 237.74z" id="path3993" /><path style="fill:#fb8b01;fill-opacity:1" d="m81.614 174.026c0-27.362 4.208-53.738 11.999-78.528-8.402 1.551-15.646 6.407-20.333 13.171-3.2-.825-6.56-1.272-10.019-1.272-22 0-39.834 17.835-39.834 39.836.0 21.997 17.835 39.836 39.834 39.836h18.678c-.212-4.322-.325-8.669-.325-13.043z" id="path3995" /><path style="fill:#fca73e;fill-opacity:1" d="m445.146 350.991c-4.588.0-9.041.588-13.284 1.688-7.604-10.982-20.287-18.175-34.655-18.175-4.668.0-9.149.769-13.346 2.17-7.074-31.305-35.04-54.691-68.483-54.691-38.786.0-70.228 31.443-70.228 70.23.0.8.035 1.592.059 2.382-4.936-1.547-10.187-2.382-15.633-2.382-28.835.0-52.212 23.373-52.212 52.216.0 28.835 23.378 52.21 52.212 52.21h156.329 29.013 30.23c29.175.0 52.827-23.651 52.827-52.824-.002-29.175-23.654-52.824-52.829-52.824z" id="path3997" /><path style="fill:#fca73e;fill-opacity:1" d="m285.258 337.525c0-18.847 4-36.758 11.185-52.941-29.585 8.267-51.295 35.403-51.295 67.627.0.8.035 1.592.059 2.382-4.936-1.547-10.187-2.382-15.633-2.382-28.835.0-52.212 23.373-52.212 52.216.0 28.835 23.378 52.21 52.212 52.21H362.251C316.86 436.184 285.258 390.545 285.258 337.525z" id="path3999" /><g id="g4001" /><g id="g4003" /><g id="g4005" /><g id="g4007" /><g id="g4009" /><g id="g4011" /><g id="g4013" /><g id="g4015" /><g id="g4017" /><g id="g4019" /><g id="g4021" /><g id="g4023" /><g id="g4025" /><g id="g4027" /><g id="g4029" /></g><g id="g4077" transform="matrix(0.20806761,0,0,0.20806761,2066.7756,418.8093)" style="filter:url(#filter2473-7)" inkscape:export-xdpi="96" inkscape:export-ydpi="96"><path style="fill:#fc973e;fill-opacity:1" d="m155.968 187.07h38.254c14.29-26.216 38.712-46.094 68.024-54.357-5.897-14.318-19.979-24.397-36.419-24.397-4.11.0-8.069.633-11.79 1.798.02-.598.046-1.195.046-1.798.0-29.244-23.714-52.956-52.96-52.956-25.223.0-46.309 17.632-51.642 41.239-3.168-1.056-6.548-1.634-10.069-1.634-10.834.0-20.398 5.424-26.133 13.703-3.2-.825-6.56-1.272-10.019-1.272-22 0-39.834 17.835-39.834 39.836.0 21.997 17.835 39.836 39.834 39.836h63.687" id="path4033" /><path style="fill:#ce7201;fill-opacity:1" d="m373.536 162.958c-20.468-21.893-49.607-35.578-81.941-35.578-53.408.0-98.066 37.345-109.362 87.34-6.704-2.236-13.865-3.466-21.318-3.466-22.947.0-43.196 11.49-55.341 29.022-6.779-1.751-13.888-2.692-21.216-2.692-46.59.0-84.358 37.768-84.358 84.358.0 46.588 37.768 84.361 84.358 84.361h93.011c.196-28.675 23.489-51.858 52.206-51.858 5.446.0 10.697.835 15.633 2.382-.023-.79-.059-1.582-.059-2.382.0-38.787 31.442-70.23 70.228-70.23 33.443.0 61.41 23.387 68.483 54.691 4.197-1.401 8.678-2.17 13.346-2.17 14.368.0 27.051 7.194 34.655 18.175 4.245-1.098 8.696-1.688 13.284-1.688 19.231.0 36.057 10.279 45.295 25.637 13.396-14.793 21.557-34.414 21.557-55.94.0-46.056-37.332-83.384-83.384-83.384-8.696.0-17.08 1.333-24.963 3.803.041-1.263.096-2.529.096-3.803.0-18.832-4.641-36.579-12.845-52.163" id="path4035" /><path style="fill:#ce7201;fill-opacity:1" d="M89.442 237.74C87.76 237.638 86.066 237.583 84.358 237.583 37.768 237.582.0 275.351.0 321.941c0 46.588 37.768 84.361 84.358 84.361h93.011c.061-8.998 2.4-17.454 6.464-24.823C137.844 346.086 103.961 295.755 89.442 237.74z" id="path4037" /><path style="fill:#fb8b01;fill-opacity:1" d="m81.614 174.026c0-27.362 4.208-53.738 11.999-78.528-8.402 1.551-15.646 6.407-20.333 13.171-3.2-.825-6.56-1.272-10.019-1.272-22 0-39.834 17.835-39.834 39.836.0 21.997 17.835 39.836 39.834 39.836h18.678c-.212-4.322-.325-8.669-.325-13.043z" id="path4039" /><path style="fill:#fca73e;fill-opacity:1" d="m445.146 350.991c-4.588.0-9.041.588-13.284 1.688-7.604-10.982-20.287-18.175-34.655-18.175-4.668.0-9.149.769-13.346 2.17-7.074-31.305-35.04-54.691-68.483-54.691-38.786.0-70.228 31.443-70.228 70.23.0.8.035 1.592.059 2.382-4.936-1.547-10.187-2.382-15.633-2.382-28.835.0-52.212 23.373-52.212 52.216.0 28.835 23.378 52.21 52.212 52.21h156.329 29.013 30.23c29.175.0 52.827-23.651 52.827-52.824-.002-29.175-23.654-52.824-52.829-52.824z" id="path4041" /><path style="fill:#fca73e;fill-opacity:1" d="m285.258 337.525c0-18.847 4-36.758 11.185-52.941-29.585 8.267-51.295 35.403-51.295 67.627.0.8.035 1.592.059 2.382-4.936-1.547-10.187-2.382-15.633-2.382-28.835.0-52.212 23.373-52.212 52.216.0 28.835 23.378 52.21 52.212 52.21H362.251C316.86 436.184 285.258 390.545 285.258 337.525z" id="path4043" /><g id="g4045" /><g id="g4047" /><g id="g4049" /><g id="g4051" /><g id="g4054" /><g id="g4057" /><g id="g4059" /><g id="g4061" /><g id="g4063" /><g id="g4065" /><g id="g4067" /><g id="g4069" /><g id="g4071" /><g id="g4073" /><g id="g4075" /></g><g id="g4121" transform="matrix(0.20806761,0,0,0.20806761,2373.6923,406.71407)" style="filter:url(#filter2473-7)" inkscape:export-xdpi="96" inkscape:export-ydpi="96"><path style="fill:#fc973e;fill-opacity:1" d="m155.968 187.07h38.254c14.29-26.216 38.712-46.094 68.024-54.357-5.897-14.318-19.979-24.397-36.419-24.397-4.11.0-8.069.633-11.79 1.798.02-.598.046-1.195.046-1.798.0-29.244-23.714-52.956-52.96-52.956-25.223.0-46.309 17.632-51.642 41.239-3.168-1.056-6.548-1.634-10.069-1.634-10.834.0-20.398 5.424-26.133 13.703-3.2-.825-6.56-1.272-10.019-1.272-22 0-39.834 17.835-39.834 39.836.0 21.997 17.835 39.836 39.834 39.836h63.687" id="path4079" /><path style="fill:#ce7201;fill-opacity:1" d="m373.536 162.958c-20.468-21.893-49.607-35.578-81.941-35.578-53.408.0-98.066 37.345-109.362 87.34-6.704-2.236-13.865-3.466-21.318-3.466-22.947.0-43.196 11.49-55.341 29.022-6.779-1.751-13.888-2.692-21.216-2.692-46.59.0-84.358 37.768-84.358 84.358.0 46.588 37.768 84.361 84.358 84.361h93.011c.196-28.675 23.489-51.858 52.206-51.858 5.446.0 10.697.835 15.633 2.382-.023-.79-.059-1.582-.059-2.382.0-38.787 31.442-70.23 70.228-70.23 33.443.0 61.41 23.387 68.483 54.691 4.197-1.401 8.678-2.17 13.346-2.17 14.368.0 27.051 7.194 34.655 18.175 4.245-1.098 8.696-1.688 13.284-1.688 19.231.0 36.057 10.279 45.295 25.637 13.396-14.793 21.557-34.414 21.557-55.94.0-46.056-37.332-83.384-83.384-83.384-8.696.0-17.08 1.333-24.963 3.803.041-1.263.096-2.529.096-3.803.0-18.832-4.641-36.579-12.845-52.163" id="path4081" /><path style="fill:#ce7201;fill-opacity:1" d="M89.442 237.74C87.76 237.638 86.066 237.583 84.358 237.583 37.768 237.582.0 275.351.0 321.941c0 46.588 37.768 84.361 84.358 84.361h93.011c.061-8.998 2.4-17.454 6.464-24.823C137.844 346.086 103.961 295.755 89.442 237.74z" id="path4083" /><path style="fill:#fb8b01;fill-opacity:1" d="m81.614 174.026c0-27.362 4.208-53.738 11.999-78.528-8.402 1.551-15.646 6.407-20.333 13.171-3.2-.825-6.56-1.272-10.019-1.272-22 0-39.834 17.835-39.834 39.836.0 21.997 17.835 39.836 39.834 39.836h18.678c-.212-4.322-.325-8.669-.325-13.043z" id="path4085" /><path style="fill:#fca73e;fill-opacity:1" d="m445.146 350.991c-4.588.0-9.041.588-13.284 1.688-7.604-10.982-20.287-18.175-34.655-18.175-4.668.0-9.149.769-13.346 2.17-7.074-31.305-35.04-54.691-68.483-54.691-38.786.0-70.228 31.443-70.228 70.23.0.8.035 1.592.059 2.382-4.936-1.547-10.187-2.382-15.633-2.382-28.835.0-52.212 23.373-52.212 52.216.0 28.835 23.378 52.21 52.212 52.21h156.329 29.013 30.23c29.175.0 52.827-23.651 52.827-52.824-.002-29.175-23.654-52.824-52.829-52.824z" id="path4087" /><path style="fill:#fca73e;fill-opacity:1" d="m285.258 337.525c0-18.847 4-36.758 11.185-52.941-29.585 8.267-51.295 35.403-51.295 67.627.0.8.035 1.592.059 2.382-4.936-1.547-10.187-2.382-15.633-2.382-28.835.0-52.212 23.373-52.212 52.216.0 28.835 23.378 52.21 52.212 52.21H362.251C316.86 436.184 285.258 390.545 285.258 337.525z" id="path4089" /><g id="g4091" /><g id="g4093" /><g id="g4095" /><g id="g4097" /><g id="g4099" /><g id="g4101" /><g id="g4103" /><g id="g4105" /><g id="g4107" /><g id="g4109" /><g id="g4111" /><g id="g4113" /><g id="g4115" /><g id="g4117" /><g id="g4119" /></g></g></g></svg>