<svg xmlns:dc="http://purl.org/dc/elements/1.1/" xmlns:cc="http://creativecommons.org/ns#" xmlns:rdf="http://www.w3.org/1999/02/22-rdf-syntax-ns#" xmlns:svg="http://www.w3.org/2000/svg" xmlns="http://www.w3.org/2000/svg" xmlns:sodipodi="http://sodipodi.sourceforge.net/DTD/sodipodi-0.dtd" xmlns:inkscape="http://www.inkscape.org/namespaces/inkscape" width="195mm" height="187mm" viewBox="0 0 195 187" id="svg7666" inkscape:version="1.0.2 (e86c8708, 2021-01-15)" sodipodi:docname="man.svg"><defs id="defs7660"><inkscape:perspective sodipodi:type="inkscape:persp3d" inkscape:vp_x="0 : 93.5 : 1" inkscape:vp_y="0 : 1000 : 0" inkscape:vp_z="195 : 93.5 : 1" inkscape:persp3d-origin="97.5 : 62.333333 : 1" id="perspective8942" /><filter style="color-interpolation-filters:sRGB" inkscape:label="Drop Shadow" id="filter3012"><feFlood flood-opacity=".301961" flood-color="rgb(0,0,0)" result="flood" id="feFlood3002" /><feComposite in="flood" in2="SourceGraphic" operator="in" result="composite1" id="feComposite3004" /><feGaussianBlur in="composite1" stdDeviation=".5" result="blur" id="feGaussianBlur3006" /><feOffset dx="6.29341" dy="-6.68862" result="offset" id="feOffset3008" /><feComposite in="SourceGraphic" in2="offset" operator="over" result="composite2" id="feComposite3010" /></filter><filter style="color-interpolation-filters:sRGB" inkscape:label="Drop Shadow" id="filter2053"><feFlood flood-opacity=".301961" flood-color="rgb(0,0,0)" result="flood" id="feFlood2043" /><feComposite in="flood" in2="SourceGraphic" operator="in" result="composite1" id="feComposite2045" /><feGaussianBlur in="composite1" stdDeviation=".5" result="blur" id="feGaussianBlur2047" /><feOffset dx="1" dy="1" result="offset" id="feOffset2049" /><feComposite in="SourceGraphic" in2="offset" operator="over" result="composite2" id="feComposite2051" /></filter></defs><sodipodi:namedview id="base" pagecolor="#ffffff" bordercolor="#666666" borderopacity="1" inkscape:pageopacity="0" inkscape:pageshadow="2" inkscape:zoom="1.7478183" inkscape:cx="350.70096" inkscape:cy="243.10165" inkscape:document-units="mm" inkscape:current-layer="layer1" inkscape:document-rotation="0" showgrid="false" inkscape:window-width="1252" inkscape:window-height="943" inkscape:window-x="0" inkscape:window-y="25" inkscape:window-maximized="0" /><g inkscape:label="Layer 1" inkscape:groupmode="layer" id="layer1"><g id="g3184" transform="translate(-133.60728,-27.668636)" inkscape:export-xdpi="96" inkscape:export-ydpi="96"><g id="g2304" transform="matrix(-0.08255817,0.16453039,-0.26458333,0,319.97551,140.34352)" style="filter:url(#filter3012)"><g id="g2272"><g id="g2248"><path style="fill:#e64c3c" d="m102.4 512c-4.719.0-8.533-3.823-8.533-8.533v-25.6c0-4.71 3.814-8.533 8.533-8.533 4.719.0 8.533 3.823 8.533 8.533v25.6c0 4.71-3.814 8.533-8.533 8.533" id="path2208" /><path style="fill:#e64c3c" d="M136.533 512C131.814 512 128 508.177 128 503.467v-25.6c0-4.71 3.814-8.533 8.533-8.533 4.719.0 8.533 3.823 8.533 8.533v25.6c.001 4.71-3.814 8.533-8.533 8.533" id="path2210" /><path style="fill:#e64c3c" d="m170.667 512c-4.719.0-8.533-3.823-8.533-8.533v-25.6c0-4.71 3.814-8.533 8.533-8.533 4.719.0 8.533 3.823 8.533 8.533v25.6c0 4.71-3.814 8.533-8.533 8.533" id="path2212" /><path style="fill:#e64c3c" d="m204.8 512c-4.719.0-8.533-3.823-8.533-8.533v-25.6c0-4.71 3.814-8.533 8.533-8.533 4.719.0 8.533 3.823 8.533 8.533v25.6c0 4.71-3.814 8.533-8.533 8.533" id="path2214" /><path style="fill:#e64c3c" d="m238.933 512c-4.719.0-8.533-3.823-8.533-8.533v-25.6c0-4.71 3.814-8.533 8.533-8.533 4.719.0 8.533 3.823 8.533 8.533v25.6c.001 4.71-3.814 8.533-8.533 8.533" id="path2216" /><path style="fill:#e64c3c" d="m273.067 512c-4.719.0-8.533-3.823-8.533-8.533v-25.6c0-4.71 3.814-8.533 8.533-8.533 4.719.0 8.533 3.823 8.533 8.533v25.6c0 4.71-3.814 8.533-8.533 8.533" id="path2218" /><path style="fill:#e64c3c" d="m307.2 512c-4.719.0-8.533-3.823-8.533-8.533v-25.6c0-4.71 3.814-8.533 8.533-8.533 4.719.0 8.533 3.823 8.533 8.533v25.6c0 4.71-3.814 8.533-8.533 8.533" id="path2220" /><path style="fill:#e64c3c" d="m341.333 512c-4.719.0-8.533-3.823-8.533-8.533v-25.6c0-4.71 3.814-8.533 8.533-8.533 4.719.0 8.533 3.823 8.533 8.533v25.6c.001 4.71-3.814 8.533-8.533 8.533" id="path2222" /><path style="fill:#e64c3c" d="m375.467 512c-4.719.0-8.533-3.823-8.533-8.533v-25.6c0-4.71 3.814-8.533 8.533-8.533 4.719.0 8.533 3.823 8.533 8.533v25.6c0 4.71-3.814 8.533-8.533 8.533" id="path2224" /><path style="fill:#e64c3c" d="m409.6 512c-4.719.0-8.533-3.823-8.533-8.533v-25.6c0-4.71 3.814-8.533 8.533-8.533 4.719.0 8.533 3.823 8.533 8.533v25.6c0 4.71-3.814 8.533-8.533 8.533" id="path2226" /><path style="fill:#e64c3c" d="m102.4 42.667c-4.719.0-8.533-3.823-8.533-8.533V8.534C93.867 3.823 97.681.0 102.4.0c4.719.0 8.533 3.823 8.533 8.533v25.6c0 4.711-3.814 8.534-8.533 8.534" id="path2228" /><path style="fill:#e64c3c" d="M136.533 42.667C131.814 42.667 128 38.844 128 34.134V8.534C128 3.823 131.814.0 136.533.0c4.719.0 8.533 3.823 8.533 8.533v25.6c.001 4.711-3.814 8.534-8.533 8.534" id="path2230" /><path style="fill:#e64c3c" d="m170.667 42.667c-4.719.0-8.533-3.823-8.533-8.533v-25.6c0-4.71 3.814-8.533 8.533-8.533 4.719.0 8.533 3.823 8.533 8.533v25.6c0 4.71-3.814 8.533-8.533 8.533" id="path2232" /><path style="fill:#e64c3c" d="m204.8 42.667c-4.719.0-8.533-3.823-8.533-8.533v-25.6c0-4.71 3.814-8.533 8.533-8.533 4.719.0 8.533 3.823 8.533 8.533v25.6c0 4.71-3.814 8.533-8.533 8.533" id="path2234" /><path style="fill:#e64c3c" d="m238.933 42.667c-4.719.0-8.533-3.823-8.533-8.533v-25.6c0-4.71 3.814-8.533 8.533-8.533 4.719.0 8.533 3.823 8.533 8.533v25.6c.001 4.71-3.814 8.533-8.533 8.533" id="path2236" /><path style="fill:#e64c3c" d="m273.067 42.667c-4.719.0-8.533-3.823-8.533-8.533v-25.6c0-4.71 3.814-8.533 8.533-8.533 4.719.0 8.533 3.823 8.533 8.533v25.6c0 4.71-3.814 8.533-8.533 8.533" id="path2238" /><path style="fill:#e64c3c" d="m307.2 42.667c-4.719.0-8.533-3.823-8.533-8.533v-25.6c0-4.71 3.814-8.533 8.533-8.533 4.719.0 8.533 3.823 8.533 8.533v25.6c0 4.71-3.814 8.533-8.533 8.533" id="path2240" /><path style="fill:#e64c3c" d="m341.333 42.667c-4.719.0-8.533-3.823-8.533-8.533v-25.6c0-4.71 3.814-8.533 8.533-8.533 4.719.0 8.533 3.823 8.533 8.533v25.6c.001 4.71-3.814 8.533-8.533 8.533" id="path2242" /><path style="fill:#e64c3c" d="m375.467 42.667c-4.719.0-8.533-3.823-8.533-8.533v-25.6c0-4.71 3.814-8.533 8.533-8.533C380.186.0 384 3.823 384 8.533v25.6c0 4.711-3.814 8.534-8.533 8.534" id="path2244" /><path style="fill:#e64c3c" d="m409.6 42.667c-4.719.0-8.533-3.823-8.533-8.533v-25.6c0-4.71 3.814-8.533 8.533-8.533 4.719.0 8.533 3.823 8.533 8.533v25.6c0 4.71-3.814 8.533-8.533 8.533" id="path2246" /></g><path style="fill:#bc342a" d="M409.6 486.4H102.4c-4.719.0-8.533-3.823-8.533-8.533V34.133c0-4.71 3.814-8.533 8.533-8.533h307.2c4.719.0 8.533 3.823 8.533 8.533v443.733c0 4.711-3.814 8.534-8.533 8.534" id="path2250" /><path style="fill:#e64c3c" d="M136.533 443.733H375.467V68.267H136.533z" id="polygon2252" /><g id="g2270"><path style="fill:#bc342a" d="M238.933 102.4 204.8 136.533 170.667 102.4 204.8 68.267z" id="polygon2254" /><path style="fill:#bc342a" d="M341.333 102.4 307.2 136.533 273.067 102.4 307.2 68.267z" id="polygon2256" /><path style="fill:#bc342a" d="M290.133 170.667 256 204.8 221.867 170.667 256 136.533z" id="polygon2258" /><path style="fill:#bc342a" d="M238.933 409.6 204.8 375.467 170.667 409.6 204.8 443.733z" id="polygon2260" /><path style="fill:#bc342a" d="M341.333 409.6 307.2 375.467 273.067 409.6 307.2 443.733z" id="polygon2262" /><path style="fill:#bc342a" d="M290.133 341.333 256 307.2 221.867 341.333 256 375.467z" id="polygon2264" /><path style="fill:#bc342a" d="M170.667 290.133 204.8 256 170.667 221.867 136.533 256z" id="polygon2266" /><path style="fill:#bc342a" d="M341.333 290.133 375.467 256 341.333 221.867 307.2 256z" id="polygon2268" /></g></g><g id="g2274" /><g id="g2276" /><g id="g2278" /><g id="g2280" /><g id="g2282" /><g id="g2284" /><g id="g2286" /><g id="g2288" /><g id="g2290" /><g id="g2292" /><g id="g2294" /><g id="g2296" /><g id="g2298" /><g id="g2300" /><g id="g2302" /></g><g id="g2041" transform="translate(168.03167)" style="filter:url(#filter2053)"><g id="g2033" transform="matrix(0.26458333,0,0,0.26458333,-4.6578559,54.14144)"><path style="fill:#f2d1c2;fill-opacity:1" d="m176.46 270.938c-.065 1.227-.104 2.457-.095 3.692v65.589c0 17.068 13.836 30.905 30.905 30.905h14.328V260.635z" id="path1973" /><path style="fill:#e0b7a3;fill-opacity:1" d="m221.598 260.635v110.489h83.132c17.069.0 30.905-13.837 30.905-30.905v-65.846c0-1.149-.036-2.294-.098-3.435z" id="path1975" /><path style="fill:#1a3e6e" d="M305.138 484.996V270.938h30.4c-.98-18.155-9.709-35.217-24.838-48.364-15.081-13.106-34.933-20.659-54.47-20.723h-.25c-11.605.0-23.411 2.654-34.38 7.685l34.477 184.769c10.028.0 18.157 8.129 18.157 18.157v91.812h.21c-.13.994-.205 2.004-.209 3.027-.011 2.581 2.034 4.7 4.614 4.7h37.147c2.538.0 4.596-2.057 4.596-4.596v-.555c-.002-10.093-6.453-18.672-15.454-21.854z" id="path1977" /><path style="fill:#315588" d="m221.598 209.425-3.535 1.819c-24.672 12.696-40.325 35.339-41.604 59.693h30.552v214.085c-9.084 3.3-15.468 12.25-15.453 22.418.004 2.522 2.073 4.56 4.596 4.56h37.167c2.538.0 4.596-2.057 4.596-4.596v-.555c0-.872-.052-1.73-.145-2.575h.145v-91.812c0-10.028 8.129-18.157 18.157-18.157V219.944z" id="path1979" /><path style="fill:#1a3e6e" d="M207.015 339.95999h67.219002v15.453H207.015z" id="rect1981" /><path style="fill:#f2d1c2;fill-opacity:1" d="M305.251 51.765C290.835 41.507 274.089 35.284 256.227 35.284c-48.729.0-89.131 46.313-96.631 94.488-2.762-1.162-5.8-1.805-8.985-1.805-12.801.0-23.179 10.378-23.179 23.179.0 12.801 10.378 23.179 23.179 23.179 4.156.0 8.052-1.099 11.425-3.014 2.831 9.673 7.177 18.716 12.707 26.981 2.71 4.052 18.241 16.204 40.381 20.837l52.758 11.04 47.346-46.432C353.663 146.046 349.21 83.042 305.251 51.765z" id="path1983" /><path style="fill:#e0b7a3;fill-opacity:1" d="m361.39 127.968c-2.977.0-5.825.569-8.44 1.592-.103-.691-.208-1.383-.325-2.071-5.189-30.565-22.141-58.41-47.374-75.723 14.376 19.829 21.638 42.475 21.638 66.179.0 53.311-43.827 96.528-97.89 96.528-20.07.0-38.726-5.96-54.257-16.177 14.928 22.064 38.828 37.717 66.557 41.903 9.829 1.483 19.991 1.472 29.82-.009 37.949-5.721 68.773-32.931 79.193-68.692 3.293 1.797 7.062 2.831 11.078 2.831 12.802.0 23.179-10.378 23.179-23.179.0-12.801-10.378-23.182-23.179-23.182z" id="path1985" /><g id="g1993"><circle style="fill:#35404a" cx="220.66499" cy="152.106" r="7.7259998" id="circle1987" /><circle style="fill:#35404a" cx="289.883" cy="152.106" r="7.7259998" id="circle1989" /><path style="fill:#35404a" d="m261.667 153.369c-1.459 1.46-3.4 2.263-5.463 2.263-2.063.0-4.004-.804-5.463-2.263-3.017-3.016-7.91-3.017-10.926.0-3.018 3.017-3.018 7.91-.001 10.927 4.378 4.378 10.199 6.789 16.39 6.789 6.191.0 12.012-2.412 16.39-6.789 3.017-3.017 3.017-7.91-.001-10.927-3.015-3.017-7.908-3.017-10.926.0z" id="path1991" /></g><circle style="fill:#e0b7a3;fill-opacity:1" cx="150.612" cy="151.179" r="7.7259998" id="circle1995" /><circle style="fill:#e0b7a3;fill-opacity:1" cx="362.54099" cy="151.179" r="7.7259998" id="circle1997" /><path style="fill:#315588" d="M360.769 80.644C340.209 39.676 302.056.0 256.361.0c-8.435.0-19.377 1.233-29.256 3.131-12.33 2.367-21.277 13.096-21.277 25.652-14.033-.007-27.255 6.588-35.678 17.811-2.524 3.364-4.9 6.731-7.093 10.126-14.138 21.885-15.477 49.668-3.734 72.928v0l66.917-53.457 94.906 40.157 41.685-8.789c1.689-8.926 1.021-18.222-2.062-26.915z" id="path1999" /><path style="fill:#1a3e6e" d="m356.008 70.706c-9.254-14.95-20.85-29.137-27.823-36.257 8.206 10.827 11.721 31.12 11.721 44.505.0 19.767-8.168 26.187-26.362 22.246-25.111-5.439-63.007-25.565-87.873-62.267-4.609-6.802-12.197-10.358-19.843-10.15.0 12.684 1.779 15.612-2.221 42.421-4.508 20.507-23.016 35.391-44.007 35.391-.633.0-3.351.026-7.483.075 1.113 7.888 3.51 15.654 7.204 22.972.08.046.146.084.227.132 32.657.022 59.956-22.957 66.693-53.585 32.96 33.901 78.156 53.372 126.711 53.372v0c13.171-17.069 14.403-40.522 3.056-58.855z" id="path2001" /><g id="g2003" /><g id="g2005" /><g id="g2007" /><g id="g2009" /><g id="g2011" /><g id="g2013" /><g id="g2015" /><g id="g2017" /><g id="g2019" /><g id="g2021" /><g id="g2023" /><g id="g2025" /><g id="g2027" /><g id="g2029" /><g id="g2031" /></g><g id="g2039" transform="matrix(1.8066526,0,0,1.8066526,-202.59038,-220.21499)"><path style="fill:#f9f9f9;stroke:none;stroke-width:.264583px;stroke-linecap:butt;stroke-linejoin:miter;stroke-opacity:1" d="m131.91079 165.12536c5.41446-7.78998 20.34386-11.72334 27.07254-6.61458 2.15993 1.63993-3.4146-8.42184-6.99256-10.77232-3.79125-2.4906-8.23886-2.86754-12.56771-1.5119-3.86857 1.21149-7.9943 3.99816-8.17373 8.12648-.29225 6.724.27499 8.94546.66146 10.77232z" id="path2035" sodipodi:nodetypes="cssssc" /><path style="fill:#f2f2f2;stroke:none;stroke-width:.264583px;stroke-linecap:butt;stroke-linejoin:miter;stroke-opacity:1" d="m131.91079 165.12536c7.40137-8.33633 19.68162-11.09436 27.59226-6.47284-.29398-1.16352-.72629-2.50214-1.98438-4.34672-2.33725-1.83458-6.00775-1.62322-8.97693-1.51191-3.62752.136-6.89788 1.21299-10.01637 3.07106-2.82262 1.68178-7.18155 6.56733-7.18155 6.56733z" id="path2037" sodipodi:nodetypes="cccsscc" /></g></g></g></g></svg>