<svg xmlns:dc="http://purl.org/dc/elements/1.1/" xmlns:cc="http://creativecommons.org/ns#" xmlns:rdf="http://www.w3.org/1999/02/22-rdf-syntax-ns#" xmlns:svg="http://www.w3.org/2000/svg" xmlns="http://www.w3.org/2000/svg" xmlns:sodipodi="http://sodipodi.sourceforge.net/DTD/sodipodi-0.dtd" xmlns:inkscape="http://www.inkscape.org/namespaces/inkscape" width="308mm" height="285mm" viewBox="0 0 308 285" id="svg7291" inkscape:version="1.0.2 (e86c8708, 2021-01-15)" sodipodi:docname="masjid.svg"><defs id="defs7285"><filter style="color-interpolation-filters:sRGB" inkscape:label="Drop Shadow" id="filter1347"><feFlood flood-opacity=".301961" flood-color="rgb(0,0,0)" result="flood" id="feFlood1337" /><feComposite in="flood" in2="SourceGraphic" operator="in" result="composite1" id="feComposite1339" /><feGaussianBlur in="composite1" stdDeviation=".5" result="blur" id="feGaussianBlur1341" /><feOffset dx="1" dy="1" result="offset" id="feOffset1343" /><feComposite in="SourceGraphic" in2="offset" operator="over" result="composite2" id="feComposite1345" /></filter><filter style="color-interpolation-filters:sRGB" inkscape:label="Drop Shadow" id="filter1551"><feFlood flood-opacity=".301961" flood-color="rgb(0,0,0)" result="flood" id="feFlood1541" /><feComposite in="flood" in2="SourceGraphic" operator="in" result="composite1" id="feComposite1543" /><feGaussianBlur in="composite1" stdDeviation="5" result="blur" id="feGaussianBlur1545" /><feOffset dx="5" dy="5" result="offset" id="feOffset1547" /><feComposite in="SourceGraphic" in2="offset" operator="over" result="composite2" id="feComposite1549" /></filter><filter style="color-interpolation-filters:sRGB" inkscape:label="Drop Shadow" id="filter8453"><feFlood flood-opacity=".301961" flood-color="rgb(0,0,0)" result="flood" id="feFlood8443" /><feComposite in="flood" in2="SourceGraphic" operator="in" result="composite1" id="feComposite8445" /><feGaussianBlur in="composite1" stdDeviation="5" result="blur" id="feGaussianBlur8447" /><feOffset dx="5" dy="5" result="offset" id="feOffset8449" /><feComposite in="SourceGraphic" in2="offset" operator="over" result="composite2" id="feComposite8451" /></filter><filter style="color-interpolation-filters:sRGB" inkscape:label="Drop Shadow" id="filter1720"><feFlood flood-opacity=".301961" flood-color="rgb(0,0,0)" result="flood" id="feFlood1710" /><feComposite in="flood" in2="SourceGraphic" operator="in" result="composite1" id="feComposite1712" /><feGaussianBlur in="composite1" stdDeviation="5" result="blur" id="feGaussianBlur1714" /><feOffset dx="5" dy="5" result="offset" id="feOffset1716" /><feComposite in="SourceGraphic" in2="offset" operator="over" result="composite2" id="feComposite1718" /></filter><filter style="color-interpolation-filters:sRGB" inkscape:label="Drop Shadow" id="filter8471"><feFlood flood-opacity=".301961" flood-color="rgb(0,0,0)" result="flood" id="feFlood8461" /><feComposite in="flood" in2="SourceGraphic" operator="in" result="composite1" id="feComposite8463" /><feGaussianBlur in="composite1" stdDeviation="5" result="blur" id="feGaussianBlur8465" /><feOffset dx="5" dy="5" result="offset" id="feOffset8467" /><feComposite in="SourceGraphic" in2="offset" operator="over" result="composite2" id="feComposite8469" /></filter><filter style="color-interpolation-filters:sRGB" inkscape:label="Drop Shadow" id="filter8483"><feFlood flood-opacity=".301961" flood-color="rgb(0,0,0)" result="flood" id="feFlood8473" /><feComposite in="flood" in2="SourceGraphic" operator="in" result="composite1" id="feComposite8475" /><feGaussianBlur in="composite1" stdDeviation="5" result="blur" id="feGaussianBlur8477" /><feOffset dx="5" dy="5" result="offset" id="feOffset8479" /><feComposite in="SourceGraphic" in2="offset" operator="over" result="composite2" id="feComposite8481" /></filter><filter style="color-interpolation-filters:sRGB" inkscape:label="Drop Shadow" id="filter8495"><feFlood flood-opacity=".301961" flood-color="rgb(0,0,0)" result="flood" id="feFlood8485" /><feComposite in="flood" in2="SourceGraphic" operator="in" result="composite1" id="feComposite8487" /><feGaussianBlur in="composite1" stdDeviation="5" result="blur" id="feGaussianBlur8489" /><feOffset dx="5" dy="5" result="offset" id="feOffset8491" /><feComposite in="SourceGraphic" in2="offset" operator="over" result="composite2" id="feComposite8493" /></filter><filter style="color-interpolation-filters:sRGB" inkscape:label="Drop Shadow" id="filter8507"><feFlood flood-opacity=".301961" flood-color="rgb(0,0,0)" result="flood" id="feFlood8497" /><feComposite in="flood" in2="SourceGraphic" operator="in" result="composite1" id="feComposite8499" /><feGaussianBlur in="composite1" stdDeviation="5" result="blur" id="feGaussianBlur8501" /><feOffset dx="5" dy="5" result="offset" id="feOffset8503" /><feComposite in="SourceGraphic" in2="offset" operator="over" result="composite2" id="feComposite8505" /></filter><filter style="color-interpolation-filters:sRGB" inkscape:label="Drop Shadow" id="filter8519"><feFlood flood-opacity=".301961" flood-color="rgb(0,0,0)" result="flood" id="feFlood8509" /><feComposite in="flood" in2="SourceGraphic" operator="in" result="composite1" id="feComposite8511" /><feGaussianBlur in="composite1" stdDeviation="5" result="blur" id="feGaussianBlur8513" /><feOffset dx="5" dy="5" result="offset" id="feOffset8515" /><feComposite in="SourceGraphic" in2="offset" operator="over" result="composite2" id="feComposite8517" /></filter><filter style="color-interpolation-filters:sRGB" inkscape:label="Drop Shadow" id="filter2168"><feFlood flood-opacity=".301961" flood-color="rgb(0,0,0)" result="flood" id="feFlood2158" /><feComposite in="flood" in2="SourceGraphic" operator="in" result="composite1" id="feComposite2160" /><feGaussianBlur in="composite1" stdDeviation="1.5" result="blur" id="feGaussianBlur2162" /><feOffset dx="0" dy="0" result="offset" id="feOffset2164" /><feComposite in="SourceGraphic" in2="offset" operator="over" result="composite2" id="feComposite2166" /></filter></defs><sodipodi:namedview id="base" pagecolor="#ffffff" bordercolor="#666666" borderopacity="1" inkscape:pageopacity="0" inkscape:pageshadow="2" inkscape:zoom=".35" inkscape:cx="742.85714" inkscape:cy="560" inkscape:document-units="mm" inkscape:current-layer="layer1" inkscape:document-rotation="0" showgrid="false" showguides="true" inkscape:guide-bbox="true" inkscape:window-width="1252" inkscape:window-height="943" inkscape:window-x="0" inkscape:window-y="25" inkscape:window-maximized="0" /><g inkscape:label="Layer 1" inkscape:groupmode="layer" id="layer1"><g id="g6101" transform="translate(-2114.5501,156.72861)"><g id="g5338" data-name="Stroke copy 2" transform="matrix(2.9092558,0,0,2.9092558,2176.3306,-148.65557)" style="filter:url(#filter1347)" inkscape:export-xdpi="96" inkscape:export-ydpi="96"><path d="m15 36h34v8H15z" fill="#656b76" id="path5236" /><path d="M19 36H45V61H19z" fill="#d0d8da" id="path5238" /><path d="M26 43H45V36H19V61H45V57H31a8 8 0 0 1-8-8v-3a3 3 0 0 1 3-3z" fill="#93999a" id="path5240" /><path d="M32 8A1.16 1.16.0 0 0 30.85 9L29 21h6L33.15 9A1.16 1.16.0 0 0 32 8z" fill="#fcbc04" id="path5242" /><path d="M33.91 44.59 32 43 30.09 44.59A11.37 11.37.0 0 0 26 53.32V61h12v-7.68a11.37 11.37.0 0 0-4.09-8.73z" fill="#f9e109" id="path5244" /><path d="M31 57A8 8 0 0 1 26 55.24V61h12v-4z" fill="#fcbc04" id="path5246" /><path d="M33.91 44.59 32 43l-1.91 1.59-.18.17 1 .83A11.37 11.37.0 0 1 35 54.32V61h3v-7.68a11.37 11.37.0 0 0-4.09-8.73z" fill="#fcbc04" id="path5248" /><path d="m35 57h3v4h-3z" fill="#e59730" id="path5250" /><path d="m19 36h26v4H19z" fill="#4891d3" id="path5252" /><path d="M45 43H61V61H45z" fill="#d0d8da" id="path5254" /><path d="M61 47V43H45v18h16v-4h-2a8 8 0 0 1-8-8v-2z" fill="#93999a" id="path5256" /><path d="M3 43H19V61H3z" fill="#d0d8da" id="path5258" /><path d="M3 47V43H19V61H3v-4h2a8 8 0 0 0 8-8v-2z" fill="#93999a" id="path5260" /><path d="m3 27h8V43H3z" fill="#93999a" id="path5262" /><path d="m8 30h3v9H10a4 4 0 0 1-4-4v-3a2 2 0 0 1 2-2z" fill="#d0d8da" id="path5264" /><path d="m32 14a17 17 0 0 1 17 17v5H15V31A17 17 0 0 1 32 14z" fill="#fcbc04" id="path5266" /><path d="M32 14A16.91 16.91.0 0 0 27 14.74 16 16 0 0 0 43 30h6A17 17 0 0 0 32 14z" fill="#f9e109" id="path5268" /><path d="m3 19h8v8H3z" fill="#4891d3" id="path5270" /><path d="m7 19h4v7a4 4 0 0 1-4-4z" fill="#57b7eb" id="path5272" /><path d="m7 10-4 9h8z" fill="#fcbc04" id="path5274" /><path d="M11 18.88 7 10v4a5 5 0 0 0 4 4.88z" fill="#f9e109" id="path5276" /><path d="m53 27h8v16h-8z" fill="#93999a" id="path5278" /><path d="m58 30h3v9h-1a4 4 0 0 1-4-4v-3a2 2 0 0 1 2-2z" fill="#d0d8da" id="path5280" /><path d="m53 19h8v8h-8z" fill="#4891d3" id="path5282" /><path d="m57 19h4v7a4 4 0 0 1-4-4z" fill="#57b7eb" id="path5284" /><path d="m57 10-4 9h8z" fill="#fcbc04" id="path5286" /><path d="M61 18.88 57 10v4a5 5 0 0 0 4 4.88z" fill="#f9e109" id="path5288" /><path d="M49.23 52.64 48 51 46.77 52.64A8.86 8.86.0 0 0 45 58v3h6v-3a8.86 8.86.0 0 0-1.77-5.36z" fill="#e59730" id="path5290" /><path d="M7.23 52.64 6 51 4.77 52.64A8.86 8.86.0 0 0 3 58v3H9V58A8.86 8.86.0 0 0 7.23 52.64z" fill="#fcbc04" id="path5292" /><path d="M5 57A8.06 8.06.0 0 0 8.79 56 8.83 8.83.0 0 0 7.23 52.59L6 51 4.77 52.64A8.87 8.87.0 0 0 3.06 57z" fill="#e59730" id="path5294" /><path d="M59.23 52.64 58 51 56.77 52.64A8.86 8.86.0 0 0 55 58v3h6v-3a8.86 8.86.0 0 0-1.77-5.36z" fill="#fcbc04" id="path5296" /><path d="M59.23 52.64 58 51 56.77 52.64A8.83 8.83.0 0 0 55.21 56.05 8.06 8.06.0 0 0 59 57h1.94a8.87 8.87.0 0 0-1.71-4.36z" fill="#e59730" id="path5298" /><path d="M17.23 52.64 16 51 14.77 52.64A8.86 8.86.0 0 0 13 58v3h6v-3a8.86 8.86.0 0 0-1.77-5.36z" fill="#e59730" id="path5300" /><path d="m45 43h16v4H45z" fill="#4891d3" id="path5302" /><path d="m3 43h16v4H3z" fill="#4891d3" id="path5304" /><path d="M33.72 12.71 33.15 9A1.16 1.16.0 0 0 32 8v2a3 3 0 0 0 1.72 2.71z" fill="#f9e109" id="path5306" /><path d="m31 36h2v4h-2z" fill="#2d72bc" id="path5308" /><path d="m35 36h2v4h-2z" fill="#2d72bc" id="path5310" /><path d="m39 36h2v4h-2z" fill="#2d72bc" id="path5312" /><path d="m23 36h2v4h-2z" fill="#2d72bc" id="path5314" /><path d="m27 36h2v4h-2z" fill="#2d72bc" id="path5316" /><path d="M33 10.12A4 4 0 0 1 30.17 9a4 4 0 0 1 0-5.66 1.0040916 1.0040916.0 1 1 1.42 1.42 2 2 0 0 0-.59 1.36 2 2 0 0 0 .59 1.42 2 2 0 0 0 2.82.0 1 1 0 0 1 1.42.0 1 1 0 0 1 0 1.41 4 4 0 0 1-2.83 1.17z" fill="#f9e109" id="path5318" /><g fill="#2d72bc" id="g5336"><path d="m6 19h2v8H6z" id="path5320" /><path d="m56 19h2v8h-2z" id="path5322" /><path d="m52 43h2v4h-2z" id="path5324" /><path d="m56 43h2v4h-2z" id="path5326" /><path d="m48 43h2v4h-2z" id="path5328" /><path d="m10 43h2v4h-2z" id="path5330" /><path d="m14 43h2v4h-2z" id="path5332" /><path d="m6 43h2v4H6z" id="path5334" /></g></g><g id="g5370" transform="matrix(0.09218773,0,0,0.09218773,2181.4218,53.726896)" style="filter:url(#filter1551)" inkscape:export-xdpi="96" inkscape:export-ydpi="96"><path d="M377.55078 135.60547C381.85547 117.17188 376.83594 97.003906 362.46484 82.632812 344.32812 64.5 316.95312 61.25 295.49609 72.867188 271.47656 41.425781 233.60156 21.132812 190.97656 21.132812 126.05078 21.132812 72.121094 68.210938 61.449219 130.08984 25.800781 141.56641.0 174.99219.0 214.45703c0 48.94922 39.679688 88.62891 88.628906 88.62891H337.10156c48.94922.0 88.62891-39.67969 88.62891-88.62891.0-34.37109-19.57813-64.15234-48.17969-78.85156zm0 0" fill="#89d47f" id="path5342" /><path d="m245.47266 286.12109-6.50391-13.8789c-9.35938-19.98047-5.35938-43.66406 10.03906-59.46485l17.73047-18.1914c14.62891-15.01172 36.01953-21.31641 56.44922-16.63672l24.33594 5.56641c8.41797 1.92968 17.25781.0664 24.18359-5.09766l18.33984-13.67188c22.65235-16.89062 53.8711-16.28906 75.86329 1.45704l25.91796 20.91796c20.16016 16.26954 25.9961 44.52735 13.92969 67.45313l-17.24219 32.76953c-5.09375 9.67969-15.13281 15.74219-26.07421 15.74219H272.15234c-11.42968.0-21.83203-6.61328-26.67968-16.96485zm0 0" fill="#9ca9ba" id="path5344" /><path d="m399.48828 303.08594c-54.39844-36.1211-58.26172-85.28125-43.72266-118.87891-2.73828.15625-5.51171-.0664-8.24218-.69141l-24.33594-5.5664c-20.42969-4.67969-41.82031 1.6289-56.44922 16.63672l-17.73047 18.1914c-15.39843 15.80078-19.39843 39.48828-10.03906 59.46485l6.50391 13.8789c4.84765 10.35157 15.24609 16.96485 26.67968 16.96485.0.0 127.97657.42578 127.33594.0zm0 0" fill="#8b97a5" id="path5346" /><path d="m293.02734 237.15234c-1.91797.0-3.83984-.73047-5.30078-2.19531-2.92969-2.92969-2.92969-7.67969.0-10.60937l14.02735-14.02344c2.92578-2.92969 7.67578-2.92969 10.60546.0 2.92579 2.92969 2.92579 7.67578.0 10.60547l-14.02734 14.02734c-1.46484 1.46094-3.38281 2.19531-5.30469 2.19531zm0 0" fill="#9ca9ba" id="path5348" /><path d="m443.85156 221.95703c-1.91797.0-3.83984-.73047-5.30469-2.19531-2.92968-2.92969-2.92968-7.67969.0-10.60547l12.17579-12.17578c2.92968-2.92969 7.67968-2.92969 10.60546.0 2.92969 2.92969 2.92969 7.67578.0 10.60547l-12.17578 12.17578c-1.46093 1.46484-3.38281 2.19531-5.30078 2.19531zm0 0" fill="#8b97a5" id="path5350" /><path d="m444.33594 266.27344c-1.92188.0-3.83985-.73438-5.30469-2.19532-2.92969-2.93359-2.92969-7.67968.0-10.60937l23.32031-23.31641c2.92578-2.92968 7.67578-2.92968 10.60547.0 2.92969 2.92969 2.92969 7.67578.0 10.60547l-23.32031 23.32031c-1.46094 1.46094-3.38281 2.19532-5.30078 2.19532zm0 0" fill="#8b97a5" id="path5352" /><path d="M154.65625 157.29687C121.98438 129.62109 116.42578 62.589844 152.78125 26.773438 105.79297 41.023438 69.9375 80.875 61.449219 130.09375 25.417969 141.69141-.554688 175.71484.0078125 215.73437.695312 264.37109 41.140625 303.08594 89.78125 303.08594h104.33594c-57.55078-28.80078-55.94922-81.58203-34.94922-117.42578 5.48047-9.35547 3.76172-21.35547-4.51172-28.36329zm0 0" fill="#5ec783" id="path5354" /><path d="m269.6875 29.371094c-19.51172 19.507812-26.63281 47.039062-29.19922 66.289062-1.64844 12.394534 8.89844 22.941404 21.29297 21.292974 19.25-2.56641 46.78125-9.6875 66.28906-29.199224 19.51172-19.511718 26.63672-47.042968 29.19922-66.289062 1.65235-12.394532-8.89844-22.945313-21.29297-21.292969-19.24609 2.5625-46.77734 9.6875-66.28906 29.199219zm0 0" fill="#8ee2cf" id="path5356" /><path d="m280.08984 84.851562c-1.92187.0-3.83984-.730468-5.30468-2.195312-2.92969-2.929688-2.92969-7.679688.0-10.605469l37.58203-37.585937c2.92969-2.925782 7.67969-2.925782 10.60547.0 2.92968 2.929687 2.92968 7.679687.0 10.609375L285.39062 82.65625c-1.46484 1.464844-3.38281 2.195312-5.30078 2.195312zm0 0" fill="#6fce91" id="path5358" /><path d="m45.191406 180.82812c19.507813 19.51172 47.039063 26.63672 66.289064 29.19922 12.39453 1.65235 22.9414-8.89843 21.29297-21.29297-2.5625-19.24609-9.6875-46.77734-29.19922-66.28906C84.0625 102.93359 56.53125 95.808594 37.285156 93.246094 24.890625 91.597656 14.339844 102.14453 15.992188 114.53906c2.5625 19.25 9.6875 46.78125 29.199218 66.28906zm0 0" fill="#8ee2cf" id="path5360" /><path d="m93.171875 177.92969c-1.917969.0-3.835937-.73438-5.300781-2.19532L50.285156 138.15234c-2.925781-2.93359-2.925781-7.67968.0-10.60937 2.929688-2.92578 7.679688-2.92578 10.609375.0L98.476562 165.125c2.929688 2.92969 2.929688 7.67969.0 10.60937-1.464843 1.46094-3.382812 2.19532-5.304687 2.19532zm0 0" fill="#6fce91" id="path5362" /><path d="m159.32031 74.667969c0 4.003906-3.24609 7.25-7.25 7.25-4 0-7.24609-3.246094-7.24609-7.25.0-4.003907 3.24609-7.25 7.24609-7.25 4.00391.0 7.25 3.246093 7.25 7.25zm0 0" fill="#5ec783" id="path5364" /><path d="m247.56641 172.99219c0 4-3.24219 7.24609-7.2461 7.24609-4.0039.0-7.25-3.24609-7.25-7.24609.0-4.00391 3.2461-7.25 7.25-7.25 4.00391.0 7.2461 3.24609 7.2461 7.25zm0 0" fill="#5ec783" id="path5366" /><path d="m137.94141 258.71094c0 4.0039-3.24219 7.25-7.2461 7.25-4.0039.0-7.25-3.2461-7.25-7.25.0-4.00391 3.2461-7.2461 7.25-7.2461 4.00391.0 7.2461 3.24219 7.2461 7.2461zm0 0" fill="#89d47f" id="path5368" /></g><g id="g5400" transform="matrix(0.17828354,0,0,0.17828354,2124.5869,68.274866)" style="filter:url(#filter1551)" inkscape:export-xdpi="96" inkscape:export-ydpi="96"><path d="M377.55078 135.60547C381.85547 117.17188 376.83594 97.003906 362.46484 82.632812 344.32812 64.5 316.95312 61.25 295.49609 72.867188 271.47656 41.425781 233.60156 21.132812 190.97656 21.132812 126.05078 21.132812 72.121094 68.210938 61.449219 130.08984 25.800781 141.56641.0 174.99219.0 214.45703c0 48.94922 39.679688 88.62891 88.628906 88.62891H337.10156c48.94922.0 88.62891-39.67969 88.62891-88.62891.0-34.37109-19.57813-64.15234-48.17969-78.85156zm0 0" fill="#89d47f" id="path5372" /><path d="m245.47266 286.12109-6.50391-13.8789c-9.35938-19.98047-5.35938-43.66406 10.03906-59.46485l17.73047-18.1914c14.62891-15.01172 36.01953-21.31641 56.44922-16.63672l24.33594 5.56641c8.41797 1.92968 17.25781.0664 24.18359-5.09766l18.33984-13.67188c22.65235-16.89062 53.8711-16.28906 75.86329 1.45704l25.91796 20.91796c20.16016 16.26954 25.9961 44.52735 13.92969 67.45313l-17.24219 32.76953c-5.09375 9.67969-15.13281 15.74219-26.07421 15.74219H272.15234c-11.42968.0-21.83203-6.61328-26.67968-16.96485zm0 0" fill="#9ca9ba" id="path5374" /><path d="m399.48828 303.08594c-54.39844-36.1211-58.26172-85.28125-43.72266-118.87891-2.73828.15625-5.51171-.0664-8.24218-.69141l-24.33594-5.5664c-20.42969-4.67969-41.82031 1.6289-56.44922 16.63672l-17.73047 18.1914c-15.39843 15.80078-19.39843 39.48828-10.03906 59.46485l6.50391 13.8789c4.84765 10.35157 15.24609 16.96485 26.67968 16.96485.0.0 127.97657.42578 127.33594.0zm0 0" fill="#8b97a5" id="path5376" /><path d="m293.02734 237.15234c-1.91797.0-3.83984-.73047-5.30078-2.19531-2.92969-2.92969-2.92969-7.67969.0-10.60937l14.02735-14.02344c2.92578-2.92969 7.67578-2.92969 10.60546.0 2.92579 2.92969 2.92579 7.67578.0 10.60547l-14.02734 14.02734c-1.46484 1.46094-3.38281 2.19531-5.30469 2.19531zm0 0" fill="#9ca9ba" id="path5378" /><path d="m443.85156 221.95703c-1.91797.0-3.83984-.73047-5.30469-2.19531-2.92968-2.92969-2.92968-7.67969.0-10.60547l12.17579-12.17578c2.92968-2.92969 7.67968-2.92969 10.60546.0 2.92969 2.92969 2.92969 7.67578.0 10.60547l-12.17578 12.17578c-1.46093 1.46484-3.38281 2.19531-5.30078 2.19531zm0 0" fill="#8b97a5" id="path5380" /><path d="m444.33594 266.27344c-1.92188.0-3.83985-.73438-5.30469-2.19532-2.92969-2.93359-2.92969-7.67968.0-10.60937l23.32031-23.31641c2.92578-2.92968 7.67578-2.92968 10.60547.0 2.92969 2.92969 2.92969 7.67578.0 10.60547l-23.32031 23.32031c-1.46094 1.46094-3.38281 2.19532-5.30078 2.19532zm0 0" fill="#8b97a5" id="path5382" /><path d="M154.65625 157.29687C121.98438 129.62109 116.42578 62.589844 152.78125 26.773438 105.79297 41.023438 69.9375 80.875 61.449219 130.09375 25.417969 141.69141-.554688 175.71484.0078125 215.73437.695312 264.37109 41.140625 303.08594 89.78125 303.08594h104.33594c-57.55078-28.80078-55.94922-81.58203-34.94922-117.42578 5.48047-9.35547 3.76172-21.35547-4.51172-28.36329zm0 0" fill="#5ec783" id="path5384" /><path d="m269.6875 29.371094c-19.51172 19.507812-26.63281 47.039062-29.19922 66.289062-1.64844 12.394534 8.89844 22.941404 21.29297 21.292974 19.25-2.56641 46.78125-9.6875 66.28906-29.199224 19.51172-19.511718 26.63672-47.042968 29.19922-66.289062 1.65235-12.394532-8.89844-22.945313-21.29297-21.292969-19.24609 2.5625-46.77734 9.6875-66.28906 29.199219zm0 0" fill="#8ee2cf" id="path5386" /><path d="m280.08984 84.851562c-1.92187.0-3.83984-.730468-5.30468-2.195312-2.92969-2.929688-2.92969-7.679688.0-10.605469l37.58203-37.585937c2.92969-2.925782 7.67969-2.925782 10.60547.0 2.92968 2.929687 2.92968 7.679687.0 10.609375L285.39062 82.65625c-1.46484 1.464844-3.38281 2.195312-5.30078 2.195312zm0 0" fill="#6fce91" id="path5388" /><path d="m45.191406 180.82812c19.507813 19.51172 47.039063 26.63672 66.289064 29.19922 12.39453 1.65235 22.9414-8.89843 21.29297-21.29297-2.5625-19.24609-9.6875-46.77734-29.19922-66.28906C84.0625 102.93359 56.53125 95.808594 37.285156 93.246094 24.890625 91.597656 14.339844 102.14453 15.992188 114.53906c2.5625 19.25 9.6875 46.78125 29.199218 66.28906zm0 0" fill="#8ee2cf" id="path5390" /><path d="m93.171875 177.92969c-1.917969.0-3.835937-.73438-5.300781-2.19532L50.285156 138.15234c-2.925781-2.93359-2.925781-7.67968.0-10.60937 2.929688-2.92578 7.679688-2.92578 10.609375.0L98.476562 165.125c2.929688 2.92969 2.929688 7.67969.0 10.60937-1.464843 1.46094-3.382812 2.19532-5.304687 2.19532zm0 0" fill="#6fce91" id="path5392" /><path d="m159.32031 74.667969c0 4.003906-3.24609 7.25-7.25 7.25-4 0-7.24609-3.246094-7.24609-7.25.0-4.003907 3.24609-7.25 7.24609-7.25 4.00391.0 7.25 3.246093 7.25 7.25zm0 0" fill="#5ec783" id="path5394" /><path d="m247.56641 172.99219c0 4-3.24219 7.24609-7.2461 7.24609-4.0039.0-7.25-3.24609-7.25-7.24609.0-4.00391 3.2461-7.25 7.25-7.25 4.00391.0 7.2461 3.24609 7.2461 7.25zm0 0" fill="#5ec783" id="path5396" /><path d="m137.94141 258.71094c0 4.0039-3.24219 7.25-7.2461 7.25-4.0039.0-7.25-3.2461-7.25-7.25.0-4.00391 3.2461-7.2461 7.25-7.2461 4.00391.0 7.2461 3.24219 7.2461 7.2461zm0 0" fill="#89d47f" id="path5398" /></g><g id="g5472" transform="matrix(0.10870581,0,0,0.10870581,2121.8463,-2.3730539)" style="filter:url(#filter1720)" inkscape:export-xdpi="96" inkscape:export-ydpi="96"><g id="g5410"><path id="path5402" style="fill:#5ac034" d="m384.628 226.085c0 32.883-11.929 52.663-30.308 63.222-12.249 7.046-27.372 9.993-43.731 9.993-16.359.0-31.482-2.946-43.731-9.993-18.378-10.559-30.308-30.339-30.308-63.222.0-31.06 10.642-67.137 27.3-92.582 12.754-19.46 29.02-32.688 46.739-32.688 17.729.0 33.996 13.238 46.739 32.698 16.659 25.435 27.3 61.522 27.3 92.572z" /><path id="path5404" style="fill:#4da32c" d="m288.832 226.085c0 27.125-7.376 48.357-21.974 63.222-18.378-10.559-30.308-30.339-30.308-63.222.0-31.06 10.642-67.137 27.3-92.582.556.968 1.113 1.957 1.659 2.956 14.608 26.682 23.323 60.183 23.323 89.626z" /><path id="path5406" style="fill:#4da32c" d="m384.628 226.085c0 32.883-11.929 52.663-30.308 63.222-14.587-14.866-21.974-36.098-21.974-63.222.0-29.443 8.726-62.944 23.334-89.626.546-.999 1.092-1.978 1.648-2.946 16.659 25.435 27.3 61.522 27.3 92.572z" /><path id="path5408" style="fill:#4da32c" d="m384.637 226.09c0 54.804-33.15 73.214-74.047 73.214-40.887.0-74.037-18.41-74.037-73.214.0-1.478.02-2.976.079-4.474 12.925 21.257 36.562 29.292 63.582 29.292 40.887.0 74.037-18.4 74.037-73.214.0-3.383-.129-6.815-.377-10.296 6.825 19.075 10.763 39.816 10.763 58.692z" /></g><g id="g5418"><path id="path5412" style="fill:#5ac034" d="m166.251 226.085c0 32.883-11.93 52.663-30.308 63.222-12.249 7.046-27.372 9.993-43.731 9.993-40.888.0-74.039-18.399-74.039-73.215.0-54.806 33.151-125.27 74.039-125.27 17.729.0 33.996 13.238 46.739 32.698 16.658 25.435 27.3 61.522 27.3 92.572z" /><path id="path5414" style="fill:#4da32c" d="m138.951 133.513c16.658 25.435 27.3 61.523 27.3 92.572.0 32.883-11.93 52.663-30.308 63.222-14.587-14.866-21.974-36.098-21.974-63.222.0-29.443 8.726-62.944 23.334-89.626.546-.999 1.092-1.978 1.648-2.946z" /><path id="path5416" style="fill:#4da32c" d="m166.258 226.09c0 54.804-33.15 73.214-74.047 73.214-40.887.0-74.037-18.41-74.037-73.214.0-1.478.02-2.976.079-4.474 12.925 21.257 36.562 29.292 63.582 29.292 40.887.0 74.037-18.4 74.037-73.214.0-3.383-.129-6.815-.377-10.296 6.825 19.075 10.763 39.816 10.763 58.692z" /></g><g id="g5424"><path id="path5420" style="fill:#92e170" d="m275.444 226.088c0 54.811-33.149 73.213-74.04 73.213-40.891.0-74.04-18.401-74.04-73.213.0-54.812 33.149-125.277 74.04-125.277 40.891.0 74.04 70.465 74.04 125.277z" /><path id="path5422" style="fill:#5ac034" d="m275.448 226.09c0 54.804-33.15 73.214-74.047 73.214-40.887.0-74.037-18.41-74.037-73.214.0-1.478.02-2.976.079-4.474 12.925 21.257 36.562 29.292 63.582 29.292 40.887.0 74.037-18.4 74.037-73.214.0-3.383-.129-6.815-.377-10.296 6.825 19.075 10.763 39.816 10.763 58.692z" /></g><g id="g5430"><path id="path5426" style="fill:#92e170" d="m493.823 226.088c0 54.811-33.149 73.213-74.04 73.213-40.891.0-74.04-18.401-74.04-73.213.0-54.812 33.149-125.277 74.04-125.277 40.891.0 74.04 70.465 74.04 125.277z" /><path id="path5428" style="fill:#5ac034" d="m493.826 226.09c0 54.804-33.15 73.214-74.047 73.214-40.887.0-74.037-18.41-74.037-73.214.0-1.478.02-2.976.079-4.474 12.925 21.257 36.562 29.292 63.582 29.292 40.887.0 74.037-18.4 74.037-73.214.0-3.383-.129-6.815-.377-10.296 6.825 19.075 10.763 39.816 10.763 58.692z" /></g><g id="g5470"><path id="path5432" style="fill:#dd976d" d="m499.123 283.096v117.791c0 5.697-4.615 10.302-10.302 10.302H23.179c-5.687.0-10.302-4.605-10.302-10.302V283.096c0-3.41 2.771-6.181 6.181-6.181h473.883c3.411.0 6.182 2.771 6.182 6.181z" /><g id="g5452"><g id="g5450"><path id="rect5434" style="fill:#c47f4c" d="M12.877 354.89999h486.245v21.253H12.877z" /><path id="path5436" style="fill:#a2c2ce" d="M505.819 362.762H6.181C2.767 362.762.0 359.995.0 356.581v-25.328c0-3.414 2.767-6.181 6.181-6.181h499.638c3.414.0 6.181 2.767 6.181 6.181v25.328c0 3.414-2.767 6.181-6.181 6.181z" /><path id="rect5438" style="fill:#84afc4" d="M73.142998 325.07199h73.142998v37.689999H73.142998z" /><path id="rect5440" style="fill:#b8daef" d="M146.286 325.07199h73.142998v37.689999H146.286z" /><path id="rect5442" style="fill:#84afc4" d="M219.429 325.07199h73.142998v37.689999H219.429z" /><path id="rect5444" style="fill:#4e768e" d="M292.57101 325.07199h73.142998v37.689999H292.57101z" /><path id="rect5446" style="fill:#84afc4" d="M365.71399 325.07199h73.142998v37.689999H365.71399z" /><path id="path5448" style="fill:#b8daef" d="m505.819 362.762h-66.962v-37.69h66.962c3.414.0 6.181 2.767 6.181 6.181v25.328c0 3.414-2.767 6.181-6.181 6.181z" /></g></g><g id="g5456"><path id="path5454" style="fill:#c47f4c" d="m362.624 396.715v14.474h-15.453v-14.474c0-4.275 3.461-7.726 7.726-7.726 4.265.0 7.727 3.451 7.727 7.726z" /></g><g id="g5460"><path id="path5458" style="fill:#c47f4c" d="m390.439 396.715v14.474h-15.453v-14.474c0-4.275 3.461-7.726 7.726-7.726 4.265.0 7.727 3.451 7.727 7.726z" /></g><g id="g5464"><path id="path5462" style="fill:#c47f4c" d="m418.254 396.715v14.474h-15.453v-14.474c0-4.275 3.461-7.726 7.726-7.726 4.265.0 7.727 3.451 7.727 7.726z" /></g><g id="g5468"><path id="path5466" style="fill:#c47f4c" d="m446.068 396.715v14.474h-15.453v-14.474c0-4.275 3.461-7.726 7.726-7.726 4.266.0 7.727 3.451 7.727 7.726z" /></g></g></g><g id="g5544" transform="matrix(0.10870581,0,0,0.10870581,2179.9956,-2.3730539)" style="filter:url(#filter1720)" inkscape:export-xdpi="96" inkscape:export-ydpi="96"><g id="g5482"><path id="path5474" style="fill:#5ac034" d="m384.628 226.085c0 32.883-11.929 52.663-30.308 63.222-12.249 7.046-27.372 9.993-43.731 9.993-16.359.0-31.482-2.946-43.731-9.993-18.378-10.559-30.308-30.339-30.308-63.222.0-31.06 10.642-67.137 27.3-92.582 12.754-19.46 29.02-32.688 46.739-32.688 17.729.0 33.996 13.238 46.739 32.698 16.659 25.435 27.3 61.522 27.3 92.572z" /><path id="path5476" style="fill:#4da32c" d="m288.832 226.085c0 27.125-7.376 48.357-21.974 63.222-18.378-10.559-30.308-30.339-30.308-63.222.0-31.06 10.642-67.137 27.3-92.582.556.968 1.113 1.957 1.659 2.956 14.608 26.682 23.323 60.183 23.323 89.626z" /><path id="path5478" style="fill:#4da32c" d="m384.628 226.085c0 32.883-11.929 52.663-30.308 63.222-14.587-14.866-21.974-36.098-21.974-63.222.0-29.443 8.726-62.944 23.334-89.626.546-.999 1.092-1.978 1.648-2.946 16.659 25.435 27.3 61.522 27.3 92.572z" /><path id="path5480" style="fill:#4da32c" d="m384.637 226.09c0 54.804-33.15 73.214-74.047 73.214-40.887.0-74.037-18.41-74.037-73.214.0-1.478.02-2.976.079-4.474 12.925 21.257 36.562 29.292 63.582 29.292 40.887.0 74.037-18.4 74.037-73.214.0-3.383-.129-6.815-.377-10.296 6.825 19.075 10.763 39.816 10.763 58.692z" /></g><g id="g5490"><path id="path5484" style="fill:#5ac034" d="m166.251 226.085c0 32.883-11.93 52.663-30.308 63.222-12.249 7.046-27.372 9.993-43.731 9.993-40.888.0-74.039-18.399-74.039-73.215.0-54.806 33.151-125.27 74.039-125.27 17.729.0 33.996 13.238 46.739 32.698 16.658 25.435 27.3 61.522 27.3 92.572z" /><path id="path5486" style="fill:#4da32c" d="m138.951 133.513c16.658 25.435 27.3 61.523 27.3 92.572.0 32.883-11.93 52.663-30.308 63.222-14.587-14.866-21.974-36.098-21.974-63.222.0-29.443 8.726-62.944 23.334-89.626.546-.999 1.092-1.978 1.648-2.946z" /><path id="path5488" style="fill:#4da32c" d="m166.258 226.09c0 54.804-33.15 73.214-74.047 73.214-40.887.0-74.037-18.41-74.037-73.214.0-1.478.02-2.976.079-4.474 12.925 21.257 36.562 29.292 63.582 29.292 40.887.0 74.037-18.4 74.037-73.214.0-3.383-.129-6.815-.377-10.296 6.825 19.075 10.763 39.816 10.763 58.692z" /></g><g id="g5496"><path id="path5492" style="fill:#92e170" d="m275.444 226.088c0 54.811-33.149 73.213-74.04 73.213-40.891.0-74.04-18.401-74.04-73.213.0-54.812 33.149-125.277 74.04-125.277 40.891.0 74.04 70.465 74.04 125.277z" /><path id="path5494" style="fill:#5ac034" d="m275.448 226.09c0 54.804-33.15 73.214-74.047 73.214-40.887.0-74.037-18.41-74.037-73.214.0-1.478.02-2.976.079-4.474 12.925 21.257 36.562 29.292 63.582 29.292 40.887.0 74.037-18.4 74.037-73.214.0-3.383-.129-6.815-.377-10.296 6.825 19.075 10.763 39.816 10.763 58.692z" /></g><g id="g5502"><path id="path5498" style="fill:#92e170" d="m493.823 226.088c0 54.811-33.149 73.213-74.04 73.213-40.891.0-74.04-18.401-74.04-73.213.0-54.812 33.149-125.277 74.04-125.277 40.891.0 74.04 70.465 74.04 125.277z" /><path id="path5500" style="fill:#5ac034" d="m493.826 226.09c0 54.804-33.15 73.214-74.047 73.214-40.887.0-74.037-18.41-74.037-73.214.0-1.478.02-2.976.079-4.474 12.925 21.257 36.562 29.292 63.582 29.292 40.887.0 74.037-18.4 74.037-73.214.0-3.383-.129-6.815-.377-10.296 6.825 19.075 10.763 39.816 10.763 58.692z" /></g><g id="g5542"><path id="path5504" style="fill:#dd976d" d="m499.123 283.096v117.791c0 5.697-4.615 10.302-10.302 10.302H23.179c-5.687.0-10.302-4.605-10.302-10.302V283.096c0-3.41 2.771-6.181 6.181-6.181h473.883c3.411.0 6.182 2.771 6.182 6.181z" /><g id="g5524"><g id="g5522"><path id="rect5506" style="fill:#c47f4c" d="M12.877 354.89999h486.245v21.253H12.877z" /><path id="path5508" style="fill:#a2c2ce" d="M505.819 362.762H6.181C2.767 362.762.0 359.995.0 356.581v-25.328c0-3.414 2.767-6.181 6.181-6.181h499.638c3.414.0 6.181 2.767 6.181 6.181v25.328c0 3.414-2.767 6.181-6.181 6.181z" /><path id="rect5510" style="fill:#84afc4" d="M73.142998 325.07199h73.142998v37.689999H73.142998z" /><path id="rect5512" style="fill:#b8daef" d="M146.286 325.07199h73.142998v37.689999H146.286z" /><path id="rect5514" style="fill:#84afc4" d="M219.429 325.07199h73.142998v37.689999H219.429z" /><path id="rect5516" style="fill:#4e768e" d="M292.57101 325.07199h73.142998v37.689999H292.57101z" /><path id="rect5518" style="fill:#84afc4" d="M365.71399 325.07199h73.142998v37.689999H365.71399z" /><path id="path5520" style="fill:#b8daef" d="m505.819 362.762h-66.962v-37.69h66.962c3.414.0 6.181 2.767 6.181 6.181v25.328c0 3.414-2.767 6.181-6.181 6.181z" /></g></g><g id="g5528"><path id="path5526" style="fill:#c47f4c" d="m362.624 396.715v14.474h-15.453v-14.474c0-4.275 3.461-7.726 7.726-7.726 4.265.0 7.727 3.451 7.727 7.726z" /></g><g id="g5532"><path id="path5530" style="fill:#c47f4c" d="m390.439 396.715v14.474h-15.453v-14.474c0-4.275 3.461-7.726 7.726-7.726 4.265.0 7.727 3.451 7.727 7.726z" /></g><g id="g5536"><path id="path5534" style="fill:#c47f4c" d="m418.254 396.715v14.474h-15.453v-14.474c0-4.275 3.461-7.726 7.726-7.726 4.265.0 7.727 3.451 7.727 7.726z" /></g><g id="g5540"><path id="path5538" style="fill:#c47f4c" d="m446.068 396.715v14.474h-15.453v-14.474c0-4.275 3.461-7.726 7.726-7.726 4.266.0 7.727 3.451 7.727 7.726z" /></g></g></g><g id="g5616" transform="matrix(0.10870581,0,0,0.10870581,2302.2693,-2.3730539)" style="filter:url(#filter1720)" inkscape:export-xdpi="96" inkscape:export-ydpi="96"><g id="g5554"><path id="path5546" style="fill:#5ac034" d="m384.628 226.085c0 32.883-11.929 52.663-30.308 63.222-12.249 7.046-27.372 9.993-43.731 9.993-16.359.0-31.482-2.946-43.731-9.993-18.378-10.559-30.308-30.339-30.308-63.222.0-31.06 10.642-67.137 27.3-92.582 12.754-19.46 29.02-32.688 46.739-32.688 17.729.0 33.996 13.238 46.739 32.698 16.659 25.435 27.3 61.522 27.3 92.572z" /><path id="path5548" style="fill:#4da32c" d="m288.832 226.085c0 27.125-7.376 48.357-21.974 63.222-18.378-10.559-30.308-30.339-30.308-63.222.0-31.06 10.642-67.137 27.3-92.582.556.968 1.113 1.957 1.659 2.956 14.608 26.682 23.323 60.183 23.323 89.626z" /><path id="path5550" style="fill:#4da32c" d="m384.628 226.085c0 32.883-11.929 52.663-30.308 63.222-14.587-14.866-21.974-36.098-21.974-63.222.0-29.443 8.726-62.944 23.334-89.626.546-.999 1.092-1.978 1.648-2.946 16.659 25.435 27.3 61.522 27.3 92.572z" /><path id="path5552" style="fill:#4da32c" d="m384.637 226.09c0 54.804-33.15 73.214-74.047 73.214-40.887.0-74.037-18.41-74.037-73.214.0-1.478.02-2.976.079-4.474 12.925 21.257 36.562 29.292 63.582 29.292 40.887.0 74.037-18.4 74.037-73.214.0-3.383-.129-6.815-.377-10.296 6.825 19.075 10.763 39.816 10.763 58.692z" /></g><g id="g5562"><path id="path5556" style="fill:#5ac034" d="m166.251 226.085c0 32.883-11.93 52.663-30.308 63.222-12.249 7.046-27.372 9.993-43.731 9.993-40.888.0-74.039-18.399-74.039-73.215.0-54.806 33.151-125.27 74.039-125.27 17.729.0 33.996 13.238 46.739 32.698 16.658 25.435 27.3 61.522 27.3 92.572z" /><path id="path5558" style="fill:#4da32c" d="m138.951 133.513c16.658 25.435 27.3 61.523 27.3 92.572.0 32.883-11.93 52.663-30.308 63.222-14.587-14.866-21.974-36.098-21.974-63.222.0-29.443 8.726-62.944 23.334-89.626.546-.999 1.092-1.978 1.648-2.946z" /><path id="path5560" style="fill:#4da32c" d="m166.258 226.09c0 54.804-33.15 73.214-74.047 73.214-40.887.0-74.037-18.41-74.037-73.214.0-1.478.02-2.976.079-4.474 12.925 21.257 36.562 29.292 63.582 29.292 40.887.0 74.037-18.4 74.037-73.214.0-3.383-.129-6.815-.377-10.296 6.825 19.075 10.763 39.816 10.763 58.692z" /></g><g id="g5568"><path id="path5564" style="fill:#92e170" d="m275.444 226.088c0 54.811-33.149 73.213-74.04 73.213-40.891.0-74.04-18.401-74.04-73.213.0-54.812 33.149-125.277 74.04-125.277 40.891.0 74.04 70.465 74.04 125.277z" /><path id="path5566" style="fill:#5ac034" d="m275.448 226.09c0 54.804-33.15 73.214-74.047 73.214-40.887.0-74.037-18.41-74.037-73.214.0-1.478.02-2.976.079-4.474 12.925 21.257 36.562 29.292 63.582 29.292 40.887.0 74.037-18.4 74.037-73.214.0-3.383-.129-6.815-.377-10.296 6.825 19.075 10.763 39.816 10.763 58.692z" /></g><g id="g5574"><path id="path5570" style="fill:#92e170" d="m493.823 226.088c0 54.811-33.149 73.213-74.04 73.213-40.891.0-74.04-18.401-74.04-73.213.0-54.812 33.149-125.277 74.04-125.277 40.891.0 74.04 70.465 74.04 125.277z" /><path id="path5572" style="fill:#5ac034" d="m493.826 226.09c0 54.804-33.15 73.214-74.047 73.214-40.887.0-74.037-18.41-74.037-73.214.0-1.478.02-2.976.079-4.474 12.925 21.257 36.562 29.292 63.582 29.292 40.887.0 74.037-18.4 74.037-73.214.0-3.383-.129-6.815-.377-10.296 6.825 19.075 10.763 39.816 10.763 58.692z" /></g><g id="g5614"><path id="path5576" style="fill:#dd976d" d="m499.123 283.096v117.791c0 5.697-4.615 10.302-10.302 10.302H23.179c-5.687.0-10.302-4.605-10.302-10.302V283.096c0-3.41 2.771-6.181 6.181-6.181h473.883c3.411.0 6.182 2.771 6.182 6.181z" /><g id="g5596"><g id="g5594"><path id="rect5578" style="fill:#c47f4c" d="M12.877 354.89999h486.245v21.253H12.877z" /><path id="path5580" style="fill:#a2c2ce" d="M505.819 362.762H6.181C2.767 362.762.0 359.995.0 356.581v-25.328c0-3.414 2.767-6.181 6.181-6.181h499.638c3.414.0 6.181 2.767 6.181 6.181v25.328c0 3.414-2.767 6.181-6.181 6.181z" /><path id="rect5582" style="fill:#84afc4" d="M73.142998 325.07199h73.142998v37.689999H73.142998z" /><path id="rect5584" style="fill:#b8daef" d="M146.286 325.07199h73.142998v37.689999H146.286z" /><path id="rect5586" style="fill:#84afc4" d="M219.429 325.07199h73.142998v37.689999H219.429z" /><path id="rect5588" style="fill:#4e768e" d="M292.57101 325.07199h73.142998v37.689999H292.57101z" /><path id="rect5590" style="fill:#84afc4" d="M365.71399 325.07199h73.142998v37.689999H365.71399z" /><path id="path5592" style="fill:#b8daef" d="m505.819 362.762h-66.962v-37.69h66.962c3.414.0 6.181 2.767 6.181 6.181v25.328c0 3.414-2.767 6.181-6.181 6.181z" /></g></g><g id="g5600"><path id="path5598" style="fill:#c47f4c" d="m362.624 396.715v14.474h-15.453v-14.474c0-4.275 3.461-7.726 7.726-7.726 4.265.0 7.727 3.451 7.727 7.726z" /></g><g id="g5604"><path id="path5602" style="fill:#c47f4c" d="m390.439 396.715v14.474h-15.453v-14.474c0-4.275 3.461-7.726 7.726-7.726 4.265.0 7.727 3.451 7.727 7.726z" /></g><g id="g5608"><path id="path5606" style="fill:#c47f4c" d="m418.254 396.715v14.474h-15.453v-14.474c0-4.275 3.461-7.726 7.726-7.726 4.265.0 7.727 3.451 7.727 7.726z" /></g><g id="g5612"><path id="path5610" style="fill:#c47f4c" d="m446.068 396.715v14.474h-15.453v-14.474c0-4.275 3.461-7.726 7.726-7.726 4.266.0 7.727 3.451 7.727 7.726z" /></g></g></g><g id="g5688" transform="matrix(0.10870581,0,0,0.10870581,2360.4186,-2.3730539)" style="filter:url(#filter1720)" inkscape:export-xdpi="96" inkscape:export-ydpi="96"><g id="g5626"><path id="path5618" style="fill:#5ac034" d="m384.628 226.085c0 32.883-11.929 52.663-30.308 63.222-12.249 7.046-27.372 9.993-43.731 9.993-16.359.0-31.482-2.946-43.731-9.993-18.378-10.559-30.308-30.339-30.308-63.222.0-31.06 10.642-67.137 27.3-92.582 12.754-19.46 29.02-32.688 46.739-32.688 17.729.0 33.996 13.238 46.739 32.698 16.659 25.435 27.3 61.522 27.3 92.572z" /><path id="path5620" style="fill:#4da32c" d="m288.832 226.085c0 27.125-7.376 48.357-21.974 63.222-18.378-10.559-30.308-30.339-30.308-63.222.0-31.06 10.642-67.137 27.3-92.582.556.968 1.113 1.957 1.659 2.956 14.608 26.682 23.323 60.183 23.323 89.626z" /><path id="path5622" style="fill:#4da32c" d="m384.628 226.085c0 32.883-11.929 52.663-30.308 63.222-14.587-14.866-21.974-36.098-21.974-63.222.0-29.443 8.726-62.944 23.334-89.626.546-.999 1.092-1.978 1.648-2.946 16.659 25.435 27.3 61.522 27.3 92.572z" /><path id="path5624" style="fill:#4da32c" d="m384.637 226.09c0 54.804-33.15 73.214-74.047 73.214-40.887.0-74.037-18.41-74.037-73.214.0-1.478.02-2.976.079-4.474 12.925 21.257 36.562 29.292 63.582 29.292 40.887.0 74.037-18.4 74.037-73.214.0-3.383-.129-6.815-.377-10.296 6.825 19.075 10.763 39.816 10.763 58.692z" /></g><g id="g5634"><path id="path5628" style="fill:#5ac034" d="m166.251 226.085c0 32.883-11.93 52.663-30.308 63.222-12.249 7.046-27.372 9.993-43.731 9.993-40.888.0-74.039-18.399-74.039-73.215.0-54.806 33.151-125.27 74.039-125.27 17.729.0 33.996 13.238 46.739 32.698 16.658 25.435 27.3 61.522 27.3 92.572z" /><path id="path5630" style="fill:#4da32c" d="m138.951 133.513c16.658 25.435 27.3 61.523 27.3 92.572.0 32.883-11.93 52.663-30.308 63.222-14.587-14.866-21.974-36.098-21.974-63.222.0-29.443 8.726-62.944 23.334-89.626.546-.999 1.092-1.978 1.648-2.946z" /><path id="path5632" style="fill:#4da32c" d="m166.258 226.09c0 54.804-33.15 73.214-74.047 73.214-40.887.0-74.037-18.41-74.037-73.214.0-1.478.02-2.976.079-4.474 12.925 21.257 36.562 29.292 63.582 29.292 40.887.0 74.037-18.4 74.037-73.214.0-3.383-.129-6.815-.377-10.296 6.825 19.075 10.763 39.816 10.763 58.692z" /></g><g id="g5640"><path id="path5636" style="fill:#92e170" d="m275.444 226.088c0 54.811-33.149 73.213-74.04 73.213-40.891.0-74.04-18.401-74.04-73.213.0-54.812 33.149-125.277 74.04-125.277 40.891.0 74.04 70.465 74.04 125.277z" /><path id="path5638" style="fill:#5ac034" d="m275.448 226.09c0 54.804-33.15 73.214-74.047 73.214-40.887.0-74.037-18.41-74.037-73.214.0-1.478.02-2.976.079-4.474 12.925 21.257 36.562 29.292 63.582 29.292 40.887.0 74.037-18.4 74.037-73.214.0-3.383-.129-6.815-.377-10.296 6.825 19.075 10.763 39.816 10.763 58.692z" /></g><g id="g5646"><path id="path5642" style="fill:#92e170" d="m493.823 226.088c0 54.811-33.149 73.213-74.04 73.213-40.891.0-74.04-18.401-74.04-73.213.0-54.812 33.149-125.277 74.04-125.277 40.891.0 74.04 70.465 74.04 125.277z" /><path id="path5644" style="fill:#5ac034" d="m493.826 226.09c0 54.804-33.15 73.214-74.047 73.214-40.887.0-74.037-18.41-74.037-73.214.0-1.478.02-2.976.079-4.474 12.925 21.257 36.562 29.292 63.582 29.292 40.887.0 74.037-18.4 74.037-73.214.0-3.383-.129-6.815-.377-10.296 6.825 19.075 10.763 39.816 10.763 58.692z" /></g><g id="g5686"><path id="path5648" style="fill:#dd976d" d="m499.123 283.096v117.791c0 5.697-4.615 10.302-10.302 10.302H23.179c-5.687.0-10.302-4.605-10.302-10.302V283.096c0-3.41 2.771-6.181 6.181-6.181h473.883c3.411.0 6.182 2.771 6.182 6.181z" /><g id="g5668"><g id="g5666"><path id="rect5650" style="fill:#c47f4c" d="M12.877 354.89999h486.245v21.253H12.877z" /><path id="path5652" style="fill:#a2c2ce" d="M505.819 362.762H6.181C2.767 362.762.0 359.995.0 356.581v-25.328c0-3.414 2.767-6.181 6.181-6.181h499.638c3.414.0 6.181 2.767 6.181 6.181v25.328c0 3.414-2.767 6.181-6.181 6.181z" /><path id="rect5654" style="fill:#84afc4" d="M73.142998 325.07199h73.142998v37.689999H73.142998z" /><path id="rect5656" style="fill:#b8daef" d="M146.286 325.07199h73.142998v37.689999H146.286z" /><path id="rect5658" style="fill:#84afc4" d="M219.429 325.07199h73.142998v37.689999H219.429z" /><path id="rect5660" style="fill:#4e768e" d="M292.57101 325.07199h73.142998v37.689999H292.57101z" /><path id="rect5662" style="fill:#84afc4" d="M365.71399 325.07199h73.142998v37.689999H365.71399z" /><path id="path5664" style="fill:#b8daef" d="m505.819 362.762h-66.962v-37.69h66.962c3.414.0 6.181 2.767 6.181 6.181v25.328c0 3.414-2.767 6.181-6.181 6.181z" /></g></g><g id="g5672"><path id="path5670" style="fill:#c47f4c" d="m362.624 396.715v14.474h-15.453v-14.474c0-4.275 3.461-7.726 7.726-7.726 4.265.0 7.727 3.451 7.727 7.726z" /></g><g id="g5676"><path id="path5674" style="fill:#c47f4c" d="m390.439 396.715v14.474h-15.453v-14.474c0-4.275 3.461-7.726 7.726-7.726 4.265.0 7.727 3.451 7.727 7.726z" /></g><g id="g5680"><path id="path5678" style="fill:#c47f4c" d="m418.254 396.715v14.474h-15.453v-14.474c0-4.275 3.461-7.726 7.726-7.726 4.265.0 7.727 3.451 7.727 7.726z" /></g><g id="g5684"><path id="path5682" style="fill:#c47f4c" d="m446.068 396.715v14.474h-15.453v-14.474c0-4.275 3.461-7.726 7.726-7.726 4.266.0 7.727 3.451 7.727 7.726z" /></g></g></g><g id="g5718" transform="matrix(-0.09218773,0,0,0.09218773,2353.1696,53.726896)" style="filter:url(#filter1551)" inkscape:export-xdpi="96" inkscape:export-ydpi="96"><path d="M377.55078 135.60547C381.85547 117.17188 376.83594 97.003906 362.46484 82.632812 344.32812 64.5 316.95312 61.25 295.49609 72.867188 271.47656 41.425781 233.60156 21.132812 190.97656 21.132812 126.05078 21.132812 72.121094 68.210938 61.449219 130.08984 25.800781 141.56641.0 174.99219.0 214.45703c0 48.94922 39.679688 88.62891 88.628906 88.62891H337.10156c48.94922.0 88.62891-39.67969 88.62891-88.62891.0-34.37109-19.57813-64.15234-48.17969-78.85156zm0 0" fill="#89d47f" id="path5690" /><path d="m245.47266 286.12109-6.50391-13.8789c-9.35938-19.98047-5.35938-43.66406 10.03906-59.46485l17.73047-18.1914c14.62891-15.01172 36.01953-21.31641 56.44922-16.63672l24.33594 5.56641c8.41797 1.92968 17.25781.0664 24.18359-5.09766l18.33984-13.67188c22.65235-16.89062 53.8711-16.28906 75.86329 1.45704l25.91796 20.91796c20.16016 16.26954 25.9961 44.52735 13.92969 67.45313l-17.24219 32.76953c-5.09375 9.67969-15.13281 15.74219-26.07421 15.74219H272.15234c-11.42968.0-21.83203-6.61328-26.67968-16.96485zm0 0" fill="#9ca9ba" id="path5692" /><path d="m399.48828 303.08594c-54.39844-36.1211-58.26172-85.28125-43.72266-118.87891-2.73828.15625-5.51171-.0664-8.24218-.69141l-24.33594-5.5664c-20.42969-4.67969-41.82031 1.6289-56.44922 16.63672l-17.73047 18.1914c-15.39843 15.80078-19.39843 39.48828-10.03906 59.46485l6.50391 13.8789c4.84765 10.35157 15.24609 16.96485 26.67968 16.96485.0.0 127.97657.42578 127.33594.0zm0 0" fill="#8b97a5" id="path5694" /><path d="m293.02734 237.15234c-1.91797.0-3.83984-.73047-5.30078-2.19531-2.92969-2.92969-2.92969-7.67969.0-10.60937l14.02735-14.02344c2.92578-2.92969 7.67578-2.92969 10.60546.0 2.92579 2.92969 2.92579 7.67578.0 10.60547l-14.02734 14.02734c-1.46484 1.46094-3.38281 2.19531-5.30469 2.19531zm0 0" fill="#9ca9ba" id="path5696" /><path d="m443.85156 221.95703c-1.91797.0-3.83984-.73047-5.30469-2.19531-2.92968-2.92969-2.92968-7.67969.0-10.60547l12.17579-12.17578c2.92968-2.92969 7.67968-2.92969 10.60546.0 2.92969 2.92969 2.92969 7.67578.0 10.60547l-12.17578 12.17578c-1.46093 1.46484-3.38281 2.19531-5.30078 2.19531zm0 0" fill="#8b97a5" id="path5698" /><path d="m444.33594 266.27344c-1.92188.0-3.83985-.73438-5.30469-2.19532-2.92969-2.93359-2.92969-7.67968.0-10.60937l23.32031-23.31641c2.92578-2.92968 7.67578-2.92968 10.60547.0 2.92969 2.92969 2.92969 7.67578.0 10.60547l-23.32031 23.32031c-1.46094 1.46094-3.38281 2.19532-5.30078 2.19532zm0 0" fill="#8b97a5" id="path5700" /><path d="M154.65625 157.29687C121.98438 129.62109 116.42578 62.589844 152.78125 26.773438 105.79297 41.023438 69.9375 80.875 61.449219 130.09375 25.417969 141.69141-.554688 175.71484.0078125 215.73437.695312 264.37109 41.140625 303.08594 89.78125 303.08594h104.33594c-57.55078-28.80078-55.94922-81.58203-34.94922-117.42578 5.48047-9.35547 3.76172-21.35547-4.51172-28.36329zm0 0" fill="#5ec783" id="path5702" /><path d="m269.6875 29.371094c-19.51172 19.507812-26.63281 47.039062-29.19922 66.289062-1.64844 12.394534 8.89844 22.941404 21.29297 21.292974 19.25-2.56641 46.78125-9.6875 66.28906-29.199224 19.51172-19.511718 26.63672-47.042968 29.19922-66.289062 1.65235-12.394532-8.89844-22.945313-21.29297-21.292969-19.24609 2.5625-46.77734 9.6875-66.28906 29.199219zm0 0" fill="#8ee2cf" id="path5704" /><path d="m280.08984 84.851562c-1.92187.0-3.83984-.730468-5.30468-2.195312-2.92969-2.929688-2.92969-7.679688.0-10.605469l37.58203-37.585937c2.92969-2.925782 7.67969-2.925782 10.60547.0 2.92968 2.929687 2.92968 7.679687.0 10.609375L285.39062 82.65625c-1.46484 1.464844-3.38281 2.195312-5.30078 2.195312zm0 0" fill="#6fce91" id="path5706" /><path d="m45.191406 180.82812c19.507813 19.51172 47.039063 26.63672 66.289064 29.19922 12.39453 1.65235 22.9414-8.89843 21.29297-21.29297-2.5625-19.24609-9.6875-46.77734-29.19922-66.28906C84.0625 102.93359 56.53125 95.808594 37.285156 93.246094 24.890625 91.597656 14.339844 102.14453 15.992188 114.53906c2.5625 19.25 9.6875 46.78125 29.199218 66.28906zm0 0" fill="#8ee2cf" id="path5708" /><path d="m93.171875 177.92969c-1.917969.0-3.835937-.73438-5.300781-2.19532L50.285156 138.15234c-2.925781-2.93359-2.925781-7.67968.0-10.60937 2.929688-2.92578 7.679688-2.92578 10.609375.0L98.476562 165.125c2.929688 2.92969 2.929688 7.67969.0 10.60937-1.464843 1.46094-3.382812 2.19532-5.304687 2.19532zm0 0" fill="#6fce91" id="path5710" /><path d="m159.32031 74.667969c0 4.003906-3.24609 7.25-7.25 7.25-4 0-7.24609-3.246094-7.24609-7.25.0-4.003907 3.24609-7.25 7.24609-7.25 4.00391.0 7.25 3.246093 7.25 7.25zm0 0" fill="#5ec783" id="path5712" /><path d="m247.56641 172.99219c0 4-3.24219 7.24609-7.2461 7.24609-4.0039.0-7.25-3.24609-7.25-7.24609.0-4.00391 3.2461-7.25 7.25-7.25 4.00391.0 7.2461 3.24609 7.2461 7.25zm0 0" fill="#5ec783" id="path5714" /><path d="m137.94141 258.71094c0 4.0039-3.24219 7.25-7.2461 7.25-4.0039.0-7.25-3.2461-7.25-7.25.0-4.00391 3.2461-7.2461 7.25-7.2461 4.00391.0 7.2461 3.24219 7.2461 7.2461zm0 0" fill="#89d47f" id="path5716" /></g><g id="g5748" transform="matrix(-0.17828354,0,0,0.17828354,2405.095,67.740326)" style="filter:url(#filter1551)" inkscape:export-xdpi="96" inkscape:export-ydpi="96"><path d="M377.55078 135.60547C381.85547 117.17188 376.83594 97.003906 362.46484 82.632812 344.32812 64.5 316.95312 61.25 295.49609 72.867188 271.47656 41.425781 233.60156 21.132812 190.97656 21.132812 126.05078 21.132812 72.121094 68.210938 61.449219 130.08984 25.800781 141.56641.0 174.99219.0 214.45703c0 48.94922 39.679688 88.62891 88.628906 88.62891H337.10156c48.94922.0 88.62891-39.67969 88.62891-88.62891.0-34.37109-19.57813-64.15234-48.17969-78.85156zm0 0" fill="#89d47f" id="path5720" /><path d="m245.47266 286.12109-6.50391-13.8789c-9.35938-19.98047-5.35938-43.66406 10.03906-59.46485l17.73047-18.1914c14.62891-15.01172 36.01953-21.31641 56.44922-16.63672l24.33594 5.56641c8.41797 1.92968 17.25781.0664 24.18359-5.09766l18.33984-13.67188c22.65235-16.89062 53.8711-16.28906 75.86329 1.45704l25.91796 20.91796c20.16016 16.26954 25.9961 44.52735 13.92969 67.45313l-17.24219 32.76953c-5.09375 9.67969-15.13281 15.74219-26.07421 15.74219H272.15234c-11.42968.0-21.83203-6.61328-26.67968-16.96485zm0 0" fill="#9ca9ba" id="path5722" /><path d="m399.48828 303.08594c-54.39844-36.1211-58.26172-85.28125-43.72266-118.87891-2.73828.15625-5.51171-.0664-8.24218-.69141l-24.33594-5.5664c-20.42969-4.67969-41.82031 1.6289-56.44922 16.63672l-17.73047 18.1914c-15.39843 15.80078-19.39843 39.48828-10.03906 59.46485l6.50391 13.8789c4.84765 10.35157 15.24609 16.96485 26.67968 16.96485.0.0 127.97657.42578 127.33594.0zm0 0" fill="#8b97a5" id="path5724" /><path d="m293.02734 237.15234c-1.91797.0-3.83984-.73047-5.30078-2.19531-2.92969-2.92969-2.92969-7.67969.0-10.60937l14.02735-14.02344c2.92578-2.92969 7.67578-2.92969 10.60546.0 2.92579 2.92969 2.92579 7.67578.0 10.60547l-14.02734 14.02734c-1.46484 1.46094-3.38281 2.19531-5.30469 2.19531zm0 0" fill="#9ca9ba" id="path5726" /><path d="m443.85156 221.95703c-1.91797.0-3.83984-.73047-5.30469-2.19531-2.92968-2.92969-2.92968-7.67969.0-10.60547l12.17579-12.17578c2.92968-2.92969 7.67968-2.92969 10.60546.0 2.92969 2.92969 2.92969 7.67578.0 10.60547l-12.17578 12.17578c-1.46093 1.46484-3.38281 2.19531-5.30078 2.19531zm0 0" fill="#8b97a5" id="path5728" /><path d="m444.33594 266.27344c-1.92188.0-3.83985-.73438-5.30469-2.19532-2.92969-2.93359-2.92969-7.67968.0-10.60937l23.32031-23.31641c2.92578-2.92968 7.67578-2.92968 10.60547.0 2.92969 2.92969 2.92969 7.67578.0 10.60547l-23.32031 23.32031c-1.46094 1.46094-3.38281 2.19532-5.30078 2.19532zm0 0" fill="#8b97a5" id="path5730" /><path d="M154.65625 157.29687C121.98438 129.62109 116.42578 62.589844 152.78125 26.773438 105.79297 41.023438 69.9375 80.875 61.449219 130.09375 25.417969 141.69141-.554688 175.71484.0078125 215.73437.695312 264.37109 41.140625 303.08594 89.78125 303.08594h104.33594c-57.55078-28.80078-55.94922-81.58203-34.94922-117.42578 5.48047-9.35547 3.76172-21.35547-4.51172-28.36329zm0 0" fill="#5ec783" id="path5732" /><path d="m269.6875 29.371094c-19.51172 19.507812-26.63281 47.039062-29.19922 66.289062-1.64844 12.394534 8.89844 22.941404 21.29297 21.292974 19.25-2.56641 46.78125-9.6875 66.28906-29.199224 19.51172-19.511718 26.63672-47.042968 29.19922-66.289062 1.65235-12.394532-8.89844-22.945313-21.29297-21.292969-19.24609 2.5625-46.77734 9.6875-66.28906 29.199219zm0 0" fill="#8ee2cf" id="path5734" /><path d="m280.08984 84.851562c-1.92187.0-3.83984-.730468-5.30468-2.195312-2.92969-2.929688-2.92969-7.679688.0-10.605469l37.58203-37.585937c2.92969-2.925782 7.67969-2.925782 10.60547.0 2.92968 2.929687 2.92968 7.679687.0 10.609375L285.39062 82.65625c-1.46484 1.464844-3.38281 2.195312-5.30078 2.195312zm0 0" fill="#6fce91" id="path5736" /><path d="m45.191406 180.82812c19.507813 19.51172 47.039063 26.63672 66.289064 29.19922 12.39453 1.65235 22.9414-8.89843 21.29297-21.29297-2.5625-19.24609-9.6875-46.77734-29.19922-66.28906C84.0625 102.93359 56.53125 95.808594 37.285156 93.246094 24.890625 91.597656 14.339844 102.14453 15.992188 114.53906c2.5625 19.25 9.6875 46.78125 29.199218 66.28906zm0 0" fill="#8ee2cf" id="path5738" /><path d="m93.171875 177.92969c-1.917969.0-3.835937-.73438-5.300781-2.19532L50.285156 138.15234c-2.925781-2.93359-2.925781-7.67968.0-10.60937 2.929688-2.92578 7.679688-2.92578 10.609375.0L98.476562 165.125c2.929688 2.92969 2.929688 7.67969.0 10.60937-1.464843 1.46094-3.382812 2.19532-5.304687 2.19532zm0 0" fill="#6fce91" id="path5740" /><path d="m159.32031 74.667969c0 4.003906-3.24609 7.25-7.25 7.25-4 0-7.24609-3.246094-7.24609-7.25.0-4.003907 3.24609-7.25 7.24609-7.25 4.00391.0 7.25 3.246093 7.25 7.25zm0 0" fill="#5ec783" id="path5742" /><path d="m247.56641 172.99219c0 4-3.24219 7.24609-7.2461 7.24609-4.0039.0-7.25-3.24609-7.25-7.24609.0-4.00391 3.2461-7.25 7.25-7.25 4.00391.0 7.2461 3.24609 7.2461 7.25zm0 0" fill="#5ec783" id="path5744" /><path d="m137.94141 258.71094c0 4.0039-3.24219 7.25-7.2461 7.25-4.0039.0-7.25-3.2461-7.25-7.25.0-4.00391 3.2461-7.2461 7.25-7.2461 4.00391.0 7.2461 3.24219 7.2461 7.2461zm0 0" fill="#89d47f" id="path5746" /></g><path id="path5840" style="fill:#999;fill-opacity:1;stroke-width:.264583;filter:url(#filter2168)" d="m2251.9712 28.809036h34.9111l16.7499 99.443924h-69.48z" sodipodi:nodetypes="ccccc" inkscape:export-xdpi="96" inkscape:export-ydpi="96" /></g></g></svg>